<svg width="226" height="40" viewBox="0 0 226 40" fill="none" xmlns="http://www.w3.org/2000/svg">
<rect width="40" height="40" rx="8" fill="#DFFE4B"/>
<path d="M127.667 14.1673H125.333V10.6673H121.833V8.33398H126.667C127.219 8.33398 127.667 8.7817 127.667 9.33398V14.1673ZM126.667 31.6673C127.219 31.6673 127.667 31.2196 127.667 30.6673V25.834H125.333V29.334H121.833V31.6673H126.667ZM104.333 30.6673C104.333 31.2196 104.781 31.6673 105.333 31.6673H110.167V29.334H106.667V25.834H104.333V30.6673ZM105.333 8.33398C104.781 8.33398 104.333 8.7817 104.333 9.33398V14.1673H106.667V10.6673H110.167V8.33398H105.333Z" fill="#1D1F23"/>
<path d="M20.0002 8.33398C13.5602 8.33398 8.3335 13.5607 8.3335 20.0007C8.3335 26.4407 13.5602 31.6673 20.0002 31.6673C26.4402 31.6673 31.6668 26.4407 31.6668 20.0007C31.6668 13.5607 26.4402 8.33398 20.0002 8.33398ZM20.0002 29.334C14.8552 29.334 10.6668 25.1457 10.6668 20.0007C10.6668 14.8557 14.8552 10.6673 20.0002 10.6673C25.1452 10.6673 29.3335 14.8557 29.3335 20.0007C29.3335 25.1457 25.1452 29.334 20.0002 29.334ZM14.1601 25.1766C13.9636 25.5993 14.4015 26.0372 14.8242 25.8407L21.6823 22.6537C22.1104 22.4548 22.4543 22.1109 22.6532 21.6828L25.8402 14.8247C26.0367 14.402 25.5988 13.9641 25.1761 14.1606L18.318 17.3476C17.89 17.5465 17.5461 17.8904 17.3471 18.3185L14.1601 25.1766ZM20.0002 18.7173C20.7118 18.7173 21.2835 19.289 21.2835 20.0007C21.2835 20.7123 20.7118 21.284 20.0002 21.284C19.2885 21.284 18.7168 20.7123 18.7168 20.0007C18.7168 19.289 19.2885 18.7173 20.0002 18.7173Z" fill="#1D1F23"/>
<path d="M217.25 9.5C215.22 9.5 213.272 10.445 212 11.9383C210.728 10.445 208.78 9.5 206.75 9.5C203.157 9.5 200.333 12.3233 200.333 15.9167C200.333 20.3267 204.3 23.92 210.308 29.38L211.327 30.3004C211.709 30.6453 212.29 30.6442 212.671 30.2978L213.692 29.3683C219.7 23.92 223.667 20.3267 223.667 15.9167C223.667 12.3233 220.843 9.5 217.25 9.5ZM212.117 27.6417L212 27.7583L211.883 27.6417C206.33 22.6133 202.667 19.2883 202.667 15.9167C202.667 13.5833 204.417 11.8333 206.75 11.8333C208.547 11.8333 210.297 12.9883 210.915 14.5867H213.097C213.703 12.9883 215.453 11.8333 217.25 11.8333C219.583 11.8333 221.333 13.5833 221.333 15.9167C221.333 19.2883 217.67 22.6133 212.117 27.6417Z" fill="#1D1F23"/>
</svg>
