<svg width="149" height="56" viewBox="0 0 149 56" fill="none" xmlns="http://www.w3.org/2000/svg">
<path d="M0 16C0 7.16344 7.16344 0 16 0H133C141.837 0 149 7.16344 149 16V40C149 48.8366 141.837 56 133 56H16C7.16344 56 0 48.8366 0 40V16Z" fill="#1D1F23"/>
<path d="M48.5 19C46.76 19 45.09 19.81 44 21.09C42.91 19.81 41.24 19 39.5 19C36.42 19 34 21.42 34 24.5C34 28.28 37.4 31.36 42.55 36.04L43.3271 36.742C43.7089 37.087 44.2901 37.0859 44.6706 36.7395L45.45 36.03C50.6 31.36 54 28.28 54 24.5C54 21.42 51.58 19 48.5 19ZM44.1 34.55L44 34.65L43.9 34.55C39.14 30.24 36 27.39 36 24.5C36 22.5 37.5 21 39.5 21C41.04 21 42.54 21.99 43.07 23.36H44.94C45.46 21.99 46.96 21 48.5 21C50.5 21 52 22.5 52 24.5C52 27.39 48.86 30.24 44.1 34.55Z" fill="white"/>
<path d="M71.152 28.288C71.7493 28.3947 72.256 28.7093 72.672 29.232C73.088 29.7547 73.296 30.3467 73.296 31.008C73.296 31.5733 73.1467 32.0853 72.848 32.544C72.56 32.992 72.1387 33.3493 71.584 33.616C71.0293 33.872 70.384 34 69.648 34H65.2V22.88H69.44C70.1973 22.88 70.848 23.008 71.392 23.264C71.936 23.52 72.3467 23.8667 72.624 24.304C72.9013 24.7307 73.04 25.2107 73.04 25.744C73.04 26.384 72.8693 26.9173 72.528 27.344C72.1867 27.7707 71.728 28.0853 71.152 28.288ZM67.024 27.552H69.28C69.8773 27.552 70.3413 27.4187 70.672 27.152C71.0133 26.8747 71.184 26.48 71.184 25.968C71.184 25.4667 71.0133 25.0773 70.672 24.8C70.3413 24.512 69.8773 24.368 69.28 24.368H67.024V27.552ZM69.488 32.512C70.1067 32.512 70.592 32.3627 70.944 32.064C71.296 31.7653 71.472 31.3493 71.472 30.816C71.472 30.272 71.2853 29.84 70.912 29.52C70.5387 29.2 70.0427 29.04 69.424 29.04H67.024V32.512H69.488ZM83.2621 25.184V34H81.4381V32.96C81.1501 33.3227 80.7715 33.6107 80.3021 33.824C79.8435 34.0267 79.3528 34.128 78.8301 34.128C78.1368 34.128 77.5128 33.984 76.9581 33.696C76.4141 33.408 75.9821 32.9813 75.6621 32.416C75.3528 31.8507 75.1981 31.168 75.1981 30.368V25.184H77.0061V30.096C77.0061 30.8853 77.2035 31.4933 77.5981 31.92C77.9928 32.336 78.5315 32.544 79.2141 32.544C79.8968 32.544 80.4355 32.336 80.8301 31.92C81.2355 31.4933 81.4381 30.8853 81.4381 30.096V25.184H83.2621ZM87.7968 26.672V31.552C87.7968 31.8827 87.8714 32.1227 88.0208 32.272C88.1808 32.4107 88.4474 32.48 88.8208 32.48H89.9408V34H88.5008C87.6794 34 87.0501 33.808 86.6128 33.424C86.1754 33.04 85.9568 32.416 85.9568 31.552V26.672H84.9168V25.184H85.9568V22.992H87.7968V25.184H89.9408V26.672H87.7968ZM93.7499 26.672V31.552C93.7499 31.8827 93.8245 32.1227 93.9739 32.272C94.1339 32.4107 94.4005 32.48 94.7739 32.48H95.8939V34H94.4539C93.6325 34 93.0032 33.808 92.5659 33.424C92.1285 33.04 91.9099 32.416 91.9099 31.552V26.672H90.8699V25.184H91.9099V22.992H93.7499V25.184H95.8939V26.672H93.7499ZM101.399 34.144C100.567 34.144 99.815 33.9573 99.143 33.584C98.471 33.2 97.943 32.6667 97.559 31.984C97.175 31.2907 96.983 30.4907 96.983 29.584C96.983 28.688 97.1803 27.8933 97.575 27.2C97.9697 26.5067 98.5083 25.9733 99.191 25.6C99.8737 25.2267 100.636 25.04 101.479 25.04C102.322 25.04 103.084 25.2267 103.767 25.6C104.45 25.9733 104.988 26.5067 105.383 27.2C105.778 27.8933 105.975 28.688 105.975 29.584C105.975 30.48 105.772 31.2747 105.367 31.968C104.962 32.6613 104.407 33.2 103.703 33.584C103.01 33.9573 102.242 34.144 101.399 34.144ZM101.399 32.56C101.868 32.56 102.306 32.448 102.711 32.224C103.127 32 103.463 31.664 103.719 31.216C103.975 30.768 104.103 30.224 104.103 29.584C104.103 28.944 103.98 28.4053 103.735 27.968C103.49 27.52 103.164 27.184 102.759 26.96C102.354 26.736 101.916 26.624 101.447 26.624C100.978 26.624 100.54 26.736 100.135 26.96C99.7403 27.184 99.4257 27.52 99.191 27.968C98.9563 28.4053 98.839 28.944 98.839 29.584C98.839 30.5333 99.079 31.2693 99.559 31.792C100.05 32.304 100.663 32.56 101.399 32.56ZM112.226 25.04C112.919 25.04 113.538 25.184 114.082 25.472C114.637 25.76 115.069 26.1867 115.378 26.752C115.687 27.3173 115.842 28 115.842 28.8V34H114.034V29.072C114.034 28.2827 113.837 27.68 113.442 27.264C113.047 26.8373 112.509 26.624 111.826 26.624C111.143 26.624 110.599 26.8373 110.194 27.264C109.799 27.68 109.602 28.2827 109.602 29.072V34H107.778V25.184H109.602V26.192C109.901 25.8293 110.279 25.5467 110.738 25.344C111.207 25.1413 111.703 25.04 112.226 25.04Z" fill="white"/>
</svg>
