<svg width="157" height="149" viewBox="0 0 157 149" fill="none" xmlns="http://www.w3.org/2000/svg">
<path d="M56.6401 68.0391H23.2801L17.7601 83.9991H0.120117L30.2401 0.119141H49.8001L79.9201 83.9991H62.1601L56.6401 68.0391ZM52.0801 54.5991L39.9601 19.5591L27.8401 54.5991H52.0801Z" fill="#1D1F23"/>
<path d="M86.8586 50.5191C86.8586 43.7991 88.1786 37.8391 90.8186 32.6391C93.5386 27.4391 97.1786 23.4391 101.739 20.6391C106.379 17.8391 111.539 16.4391 117.219 16.4391C122.179 16.4391 126.499 17.4391 130.179 19.4391C133.939 21.4391 136.939 23.9591 139.179 26.9991V17.5191H156.099V83.9991H139.179V74.2791C137.019 77.3991 134.019 79.9991 130.179 82.0791C126.419 84.0791 122.059 85.0791 117.099 85.0791C111.499 85.0791 106.379 83.6391 101.739 80.7591C97.1786 77.8791 93.5386 73.8391 90.8186 68.6391C88.1786 63.3591 86.8586 57.3191 86.8586 50.5191ZM139.179 50.7591C139.179 46.6791 138.379 43.1991 136.779 40.3191C135.179 37.3591 133.019 35.1191 130.299 33.5991C127.579 31.9991 124.659 31.1991 121.539 31.1991C118.419 31.1991 115.539 31.9591 112.899 33.4791C110.259 34.9991 108.099 37.2391 106.419 40.1991C104.819 43.0791 104.019 46.5191 104.019 50.5191C104.019 54.5191 104.819 58.0391 106.419 61.0791C108.099 64.0391 110.259 66.3191 112.899 67.9191C115.619 69.5191 118.499 70.3191 121.539 70.3191C124.659 70.3191 127.579 69.5591 130.299 68.0391C133.019 66.4391 135.179 64.1991 136.779 61.3191C138.379 58.3591 139.179 54.8391 139.179 50.7591Z" fill="#1D1F23"/>
<path d="M8.09595 108.846V110.03H5.05595V119.998H3.59995V110.03H0.543945V108.846H8.09595Z" fill="#1D1F23"/>
<path d="M14.2402 111.07C14.9015 111.07 15.4989 111.214 16.0322 111.502C16.5655 111.78 16.9815 112.201 17.2802 112.766C17.5895 113.332 17.7442 114.02 17.7442 114.83V119.998H16.3042V115.038C16.3042 114.164 16.0855 113.497 15.6482 113.038C15.2109 112.569 14.6135 112.334 13.8562 112.334C13.0882 112.334 12.4749 112.574 12.0162 113.054C11.5682 113.534 11.3442 114.233 11.3442 115.15V119.998H9.8882V108.158H11.3442V112.478C11.6322 112.03 12.0269 111.684 12.5282 111.438C13.0402 111.193 13.6109 111.07 14.2402 111.07Z" fill="#1D1F23"/>
<path d="M20.8746 109.806C20.5972 109.806 20.3626 109.71 20.1706 109.518C19.9786 109.326 19.8826 109.092 19.8826 108.814C19.8826 108.537 19.9786 108.302 20.1706 108.11C20.3626 107.918 20.5972 107.822 20.8746 107.822C21.1412 107.822 21.3652 107.918 21.5466 108.11C21.7386 108.302 21.8346 108.537 21.8346 108.814C21.8346 109.092 21.7386 109.326 21.5466 109.518C21.3652 109.71 21.1412 109.806 20.8746 109.806ZM21.5786 111.23V119.998H20.1226V111.23H21.5786Z" fill="#1D1F23"/>
<path d="M27.1641 120.142C26.4921 120.142 25.8894 120.03 25.3561 119.806C24.8227 119.572 24.4014 119.252 24.0921 118.846C23.7827 118.43 23.6121 117.956 23.5801 117.422H25.0841C25.1267 117.86 25.3294 118.217 25.6921 118.494C26.0654 118.772 26.5507 118.91 27.1481 118.91C27.7027 118.91 28.1401 118.788 28.4601 118.542C28.7801 118.297 28.9401 117.988 28.9401 117.614C28.9401 117.23 28.7694 116.948 28.4281 116.766C28.0867 116.574 27.5587 116.388 26.8441 116.206C26.1934 116.036 25.6601 115.865 25.2441 115.694C24.8387 115.513 24.4867 115.252 24.1881 114.91C23.9001 114.558 23.7561 114.1 23.7561 113.534C23.7561 113.086 23.8894 112.676 24.1561 112.302C24.4227 111.929 24.8014 111.636 25.2921 111.422C25.7827 111.198 26.3427 111.086 26.9721 111.086C27.9427 111.086 28.7267 111.332 29.3241 111.822C29.9214 112.313 30.2414 112.985 30.2841 113.838H28.8281C28.7961 113.38 28.6094 113.012 28.2681 112.734C27.9374 112.457 27.4894 112.318 26.9241 112.318C26.4014 112.318 25.9854 112.43 25.6761 112.654C25.3667 112.878 25.2121 113.172 25.2121 113.534C25.2121 113.822 25.3027 114.062 25.4841 114.254C25.6761 114.436 25.9107 114.585 26.1881 114.702C26.4761 114.809 26.8707 114.932 27.3721 115.07C28.0014 115.241 28.5134 115.412 28.9081 115.582C29.3027 115.742 29.6387 115.988 29.9161 116.318C30.2041 116.649 30.3534 117.081 30.3641 117.614C30.3641 118.094 30.2307 118.526 29.9641 118.91C29.6974 119.294 29.3187 119.598 28.8281 119.822C28.3481 120.036 27.7934 120.142 27.1641 120.142Z" fill="#1D1F23"/>
<path d="M37.4371 109.806C37.1597 109.806 36.9251 109.71 36.7331 109.518C36.5411 109.326 36.4451 109.092 36.4451 108.814C36.4451 108.537 36.5411 108.302 36.7331 108.11C36.9251 107.918 37.1597 107.822 37.4371 107.822C37.7037 107.822 37.9277 107.918 38.1091 108.11C38.3011 108.302 38.3971 108.537 38.3971 108.814C38.3971 109.092 38.3011 109.326 38.1091 109.518C37.9277 109.71 37.7037 109.806 37.4371 109.806ZM38.1411 111.23V119.998H36.6851V111.23H38.1411Z" fill="#1D1F23"/>
<path d="M43.7266 120.142C43.0546 120.142 42.4519 120.03 41.9186 119.806C41.3852 119.572 40.9639 119.252 40.6546 118.846C40.3452 118.43 40.1746 117.956 40.1426 117.422H41.6466C41.6892 117.86 41.8919 118.217 42.2546 118.494C42.6279 118.772 43.1132 118.91 43.7106 118.91C44.2652 118.91 44.7026 118.788 45.0226 118.542C45.3426 118.297 45.5026 117.988 45.5026 117.614C45.5026 117.23 45.3319 116.948 44.9906 116.766C44.6492 116.574 44.1212 116.388 43.4066 116.206C42.7559 116.036 42.2226 115.865 41.8066 115.694C41.4012 115.513 41.0492 115.252 40.7506 114.91C40.4626 114.558 40.3186 114.1 40.3186 113.534C40.3186 113.086 40.4519 112.676 40.7186 112.302C40.9852 111.929 41.3639 111.636 41.8546 111.422C42.3452 111.198 42.9052 111.086 43.5346 111.086C44.5052 111.086 45.2892 111.332 45.8866 111.822C46.4839 112.313 46.8039 112.985 46.8466 113.838H45.3906C45.3586 113.38 45.1719 113.012 44.8306 112.734C44.4999 112.457 44.0519 112.318 43.4866 112.318C42.9639 112.318 42.5479 112.43 42.2386 112.654C41.9292 112.878 41.7746 113.172 41.7746 113.534C41.7746 113.822 41.8652 114.062 42.0466 114.254C42.2386 114.436 42.4732 114.585 42.7506 114.702C43.0386 114.809 43.4332 114.932 43.9346 115.07C44.5639 115.241 45.0759 115.412 45.4706 115.582C45.8652 115.742 46.2012 115.988 46.4786 116.318C46.7666 116.649 46.9159 117.081 46.9266 117.614C46.9266 118.094 46.7932 118.526 46.5266 118.91C46.2599 119.294 45.8812 119.598 45.3906 119.822C44.9106 120.036 44.3559 120.142 43.7266 120.142Z" fill="#1D1F23"/>
<path d="M52.7036 115.582C52.7036 114.686 52.8849 113.902 53.2476 113.23C53.6102 112.548 54.1062 112.02 54.7356 111.646C55.3756 111.273 56.0849 111.086 56.8636 111.086C57.6316 111.086 58.2982 111.252 58.8636 111.582C59.4289 111.913 59.8502 112.329 60.1276 112.83V111.23H61.5996V119.998H60.1276V118.366C59.8396 118.878 59.4076 119.305 58.8316 119.646C58.2662 119.977 57.6049 120.142 56.8476 120.142C56.0689 120.142 55.3649 119.95 54.7356 119.566C54.1062 119.182 53.6102 118.644 53.2476 117.95C52.8849 117.257 52.7036 116.468 52.7036 115.582ZM60.1276 115.598C60.1276 114.937 59.9942 114.361 59.7276 113.87C59.4609 113.38 59.0982 113.006 58.6396 112.75C58.1916 112.484 57.6956 112.35 57.1516 112.35C56.6076 112.35 56.1116 112.478 55.6636 112.734C55.2156 112.99 54.8582 113.364 54.5916 113.854C54.3249 114.345 54.1916 114.921 54.1916 115.582C54.1916 116.254 54.3249 116.841 54.5916 117.342C54.8582 117.833 55.2156 118.212 55.6636 118.478C56.1116 118.734 56.6076 118.862 57.1516 118.862C57.6956 118.862 58.1916 118.734 58.6396 118.478C59.0982 118.212 59.4609 117.833 59.7276 117.342C59.9942 116.841 60.1276 116.26 60.1276 115.598Z" fill="#1D1F23"/>
<path d="M69.7817 112.654C70.0377 112.153 70.4004 111.764 70.8697 111.486C71.3497 111.209 71.931 111.07 72.6137 111.07V112.574H72.2297C70.5977 112.574 69.7817 113.46 69.7817 115.23V119.998H68.3257V111.23H69.7817V112.654Z" fill="#1D1F23"/>
<path d="M82.2944 115.278C82.2944 115.556 82.2784 115.849 82.2464 116.158H75.2384C75.2918 117.022 75.5851 117.7 76.1184 118.19C76.6624 118.67 77.3184 118.91 78.0864 118.91C78.7158 118.91 79.2384 118.766 79.6544 118.478C80.0811 118.18 80.3798 117.785 80.5504 117.294H82.1184C81.8838 118.137 81.4144 118.825 80.7104 119.358C80.0064 119.881 79.1318 120.142 78.0864 120.142C77.2544 120.142 76.5078 119.956 75.8464 119.582C75.1958 119.209 74.6838 118.681 74.3104 117.998C73.9371 117.305 73.7505 116.505 73.7505 115.598C73.7505 114.692 73.9318 113.897 74.2944 113.214C74.6571 112.532 75.1638 112.009 75.8144 111.646C76.4758 111.273 77.2331 111.086 78.0864 111.086C78.9184 111.086 79.6544 111.268 80.2944 111.63C80.9344 111.993 81.4251 112.494 81.7664 113.134C82.1184 113.764 82.2944 114.478 82.2944 115.278ZM80.7904 114.974C80.7904 114.42 80.6678 113.945 80.4224 113.55C80.1771 113.145 79.8411 112.841 79.4144 112.638C78.9984 112.425 78.5344 112.318 78.0224 112.318C77.2864 112.318 76.6571 112.553 76.1344 113.022C75.6224 113.492 75.3291 114.142 75.2544 114.974H80.7904Z" fill="#1D1F23"/>
<path d="M87.8323 111.086C88.5897 111.086 89.251 111.252 89.8163 111.582C90.3923 111.913 90.819 112.329 91.0963 112.83V111.23H92.5683V120.19C92.5683 120.99 92.3977 121.7 92.0563 122.318C91.715 122.948 91.2243 123.438 90.5843 123.79C89.955 124.142 89.219 124.318 88.3763 124.318C87.2243 124.318 86.2643 124.046 85.4963 123.502C84.7283 122.958 84.275 122.217 84.1363 121.278H85.5763C85.7363 121.812 86.067 122.238 86.5683 122.558C87.0697 122.889 87.6723 123.054 88.3763 123.054C89.1763 123.054 89.827 122.804 90.3283 122.302C90.8403 121.801 91.0963 121.097 91.0963 120.19V118.35C90.8083 118.862 90.3817 119.289 89.8163 119.63C89.251 119.972 88.5897 120.142 87.8323 120.142C87.0537 120.142 86.3443 119.95 85.7043 119.566C85.075 119.182 84.579 118.644 84.2163 117.95C83.8537 117.257 83.6723 116.468 83.6723 115.582C83.6723 114.686 83.8537 113.902 84.2163 113.23C84.579 112.548 85.075 112.02 85.7043 111.646C86.3443 111.273 87.0537 111.086 87.8323 111.086ZM91.0963 115.598C91.0963 114.937 90.963 114.361 90.6963 113.87C90.4297 113.38 90.067 113.006 89.6083 112.75C89.1603 112.484 88.6643 112.35 88.1203 112.35C87.5763 112.35 87.0803 112.478 86.6323 112.734C86.1843 112.99 85.827 113.364 85.5603 113.854C85.2937 114.345 85.1603 114.921 85.1603 115.582C85.1603 116.254 85.2937 116.841 85.5603 117.342C85.827 117.833 86.1843 118.212 86.6323 118.478C87.0803 118.734 87.5763 118.862 88.1203 118.862C88.6643 118.862 89.1603 118.734 89.6083 118.478C90.067 118.212 90.4297 117.833 90.6963 117.342C90.963 116.841 91.0963 116.26 91.0963 115.598Z" fill="#1D1F23"/>
<path d="M102.805 111.23V119.998H101.349V118.702C101.071 119.15 100.682 119.502 100.181 119.758C99.6902 120.004 99.1462 120.126 98.5488 120.126C97.8662 120.126 97.2528 119.988 96.7088 119.71C96.1648 119.422 95.7328 118.996 95.4128 118.43C95.1035 117.865 94.9488 117.177 94.9488 116.366V111.23H96.3888V116.174C96.3888 117.038 96.6075 117.705 97.0448 118.174C97.4822 118.633 98.0795 118.862 98.8368 118.862C99.6155 118.862 100.229 118.622 100.677 118.142C101.125 117.662 101.349 116.964 101.349 116.046V111.23H102.805Z" fill="#1D1F23"/>
<path d="M106.719 108.158V119.998H105.263V108.158H106.719Z" fill="#1D1F23"/>
<path d="M108.657 115.582C108.657 114.686 108.838 113.902 109.201 113.23C109.563 112.548 110.059 112.02 110.689 111.646C111.329 111.273 112.038 111.086 112.817 111.086C113.585 111.086 114.251 111.252 114.817 111.582C115.382 111.913 115.803 112.329 116.081 112.83V111.23H117.553V119.998H116.081V118.366C115.793 118.878 115.361 119.305 114.785 119.646C114.219 119.977 113.558 120.142 112.801 120.142C112.022 120.142 111.318 119.95 110.689 119.566C110.059 119.182 109.563 118.644 109.201 117.95C108.838 117.257 108.657 116.468 108.657 115.582ZM116.081 115.598C116.081 114.937 115.947 114.361 115.681 113.87C115.414 113.38 115.051 113.006 114.593 112.75C114.145 112.484 113.649 112.35 113.105 112.35C112.561 112.35 112.065 112.478 111.617 112.734C111.169 112.99 110.811 113.364 110.545 113.854C110.278 114.345 110.145 114.921 110.145 115.582C110.145 116.254 110.278 116.841 110.545 117.342C110.811 117.833 111.169 118.212 111.617 118.478C112.065 118.734 112.561 118.862 113.105 118.862C113.649 118.862 114.145 118.734 114.593 118.478C115.051 118.212 115.414 117.833 115.681 117.342C115.947 116.841 116.081 116.26 116.081 115.598Z" fill="#1D1F23"/>
<path d="M121.469 112.654C121.725 112.153 122.088 111.764 122.557 111.486C123.037 111.209 123.619 111.07 124.301 111.07V112.574H123.917C122.285 112.574 121.469 113.46 121.469 115.23V119.998H120.013V111.23H121.469V112.654Z" fill="#1D1F23"/>
<path d="M2.68795 136.846C2.97595 136.345 3.40261 135.929 3.96795 135.598C4.54395 135.257 5.21061 135.086 5.96795 135.086C6.74661 135.086 7.45061 135.273 8.07995 135.646C8.71995 136.02 9.22128 136.548 9.58395 137.23C9.94661 137.902 10.1279 138.686 10.1279 139.582C10.1279 140.468 9.94661 141.257 9.58395 141.95C9.22128 142.644 8.71995 143.182 8.07995 143.566C7.45061 143.95 6.74661 144.142 5.96795 144.142C5.22128 144.142 4.55995 143.977 3.98395 143.646C3.41861 143.305 2.98661 142.884 2.68795 142.382V148.158H1.23195V135.23H2.68795V136.846ZM8.63995 139.582C8.63995 138.921 8.50661 138.345 8.23995 137.854C7.97328 137.364 7.61061 136.99 7.15195 136.734C6.70395 136.478 6.20795 136.35 5.66395 136.35C5.13061 136.35 4.63461 136.484 4.17595 136.75C3.72795 137.006 3.36528 137.385 3.08795 137.886C2.82128 138.377 2.68795 138.948 2.68795 139.598C2.68795 140.26 2.82128 140.841 3.08795 141.342C3.36528 141.833 3.72795 142.212 4.17595 142.478C4.63461 142.734 5.13061 142.862 5.66395 142.862C6.20795 142.862 6.70395 142.734 7.15195 142.478C7.61061 142.212 7.97328 141.833 8.23995 141.342C8.50661 140.841 8.63995 140.254 8.63995 139.582Z" fill="#1D1F23"/>
<path d="M11.5004 139.582C11.5004 138.686 11.6818 137.902 12.0444 137.23C12.4071 136.548 12.9031 136.02 13.5324 135.646C14.1724 135.273 14.8818 135.086 15.6604 135.086C16.4284 135.086 17.0951 135.252 17.6604 135.582C18.2258 135.913 18.6471 136.329 18.9244 136.83V135.23H20.3964V143.998H18.9244V142.366C18.6364 142.878 18.2044 143.305 17.6284 143.646C17.0631 143.977 16.4018 144.142 15.6444 144.142C14.8658 144.142 14.1618 143.95 13.5324 143.566C12.9031 143.182 12.4071 142.644 12.0444 141.95C11.6818 141.257 11.5004 140.468 11.5004 139.582ZM18.9244 139.598C18.9244 138.937 18.7911 138.361 18.5244 137.87C18.2578 137.38 17.8951 137.006 17.4364 136.75C16.9884 136.484 16.4924 136.35 15.9484 136.35C15.4044 136.35 14.9084 136.478 14.4604 136.734C14.0124 136.99 13.6551 137.364 13.3884 137.854C13.1218 138.345 12.9884 138.921 12.9884 139.582C12.9884 140.254 13.1218 140.841 13.3884 141.342C13.6551 141.833 14.0124 142.212 14.4604 142.478C14.9084 142.734 15.4044 142.862 15.9484 142.862C16.4924 142.862 16.9884 142.734 17.4364 142.478C17.8951 142.212 18.2578 141.833 18.5244 141.342C18.7911 140.841 18.9244 140.26 18.9244 139.598Z" fill="#1D1F23"/>
<path d="M24.3129 136.654C24.5689 136.153 24.9316 135.764 25.4009 135.486C25.8809 135.209 26.4623 135.07 27.1449 135.07V136.574H26.7609C25.1289 136.574 24.3129 137.46 24.3129 139.23V143.998H22.8569V135.23H24.3129V136.654Z" fill="#1D1F23"/>
<path d="M28.2817 139.582C28.2817 138.686 28.463 137.902 28.8257 137.23C29.1884 136.548 29.6844 136.02 30.3137 135.646C30.9537 135.273 31.663 135.086 32.4417 135.086C33.2097 135.086 33.8764 135.252 34.4417 135.582C35.007 135.913 35.4284 136.329 35.7057 136.83V135.23H37.1777V143.998H35.7057V142.366C35.4177 142.878 34.9857 143.305 34.4097 143.646C33.8444 143.977 33.183 144.142 32.4257 144.142C31.647 144.142 30.943 143.95 30.3137 143.566C29.6844 143.182 29.1884 142.644 28.8257 141.95C28.463 141.257 28.2817 140.468 28.2817 139.582ZM35.7057 139.598C35.7057 138.937 35.5724 138.361 35.3057 137.87C35.039 137.38 34.6764 137.006 34.2177 136.75C33.7697 136.484 33.2737 136.35 32.7297 136.35C32.1857 136.35 31.6897 136.478 31.2417 136.734C30.7937 136.99 30.4364 137.364 30.1697 137.854C29.903 138.345 29.7697 138.921 29.7697 139.582C29.7697 140.254 29.903 140.841 30.1697 141.342C30.4364 141.833 30.7937 142.212 31.2417 142.478C31.6897 142.734 32.1857 142.862 32.7297 142.862C33.2737 142.862 33.7697 142.734 34.2177 142.478C34.6764 142.212 35.039 141.833 35.3057 141.342C35.5724 140.841 35.7057 140.26 35.7057 139.598Z" fill="#1D1F23"/>
<path d="M43.2542 135.086C44.0115 135.086 44.6729 135.252 45.2382 135.582C45.8142 135.913 46.2409 136.329 46.5182 136.83V135.23H47.9902V144.19C47.9902 144.99 47.8195 145.7 47.4782 146.318C47.1369 146.948 46.6462 147.438 46.0062 147.79C45.3769 148.142 44.6409 148.318 43.7982 148.318C42.6462 148.318 41.6862 148.046 40.9182 147.502C40.1502 146.958 39.6969 146.217 39.5582 145.278H40.9982C41.1582 145.812 41.4889 146.238 41.9902 146.558C42.4915 146.889 43.0942 147.054 43.7982 147.054C44.5982 147.054 45.2489 146.804 45.7502 146.302C46.2622 145.801 46.5182 145.097 46.5182 144.19V142.35C46.2302 142.862 45.8035 143.289 45.2382 143.63C44.6729 143.972 44.0115 144.142 43.2542 144.142C42.4755 144.142 41.7662 143.95 41.1262 143.566C40.4969 143.182 40.0009 142.644 39.6382 141.95C39.2755 141.257 39.0942 140.468 39.0942 139.582C39.0942 138.686 39.2755 137.902 39.6382 137.23C40.0009 136.548 40.4969 136.02 41.1262 135.646C41.7662 135.273 42.4755 135.086 43.2542 135.086ZM46.5182 139.598C46.5182 138.937 46.3849 138.361 46.1182 137.87C45.8515 137.38 45.4889 137.006 45.0302 136.75C44.5822 136.484 44.0862 136.35 43.5422 136.35C42.9982 136.35 42.5022 136.478 42.0542 136.734C41.6062 136.99 41.2489 137.364 40.9822 137.854C40.7155 138.345 40.5822 138.921 40.5822 139.582C40.5822 140.254 40.7155 140.841 40.9822 141.342C41.2489 141.833 41.6062 142.212 42.0542 142.478C42.5022 142.734 42.9982 142.862 43.5422 142.862C44.0862 142.862 44.5822 142.734 45.0302 142.478C45.4889 142.212 45.8515 141.833 46.1182 141.342C46.3849 140.841 46.5182 140.26 46.5182 139.598Z" fill="#1D1F23"/>
<path d="M51.9067 136.654C52.1627 136.153 52.5254 135.764 52.9947 135.486C53.4747 135.209 54.056 135.07 54.7387 135.07V136.574H54.3547C52.7227 136.574 51.9067 137.46 51.9067 139.23V143.998H50.4507V135.23H51.9067V136.654Z" fill="#1D1F23"/>
<path d="M55.8754 139.582C55.8754 138.686 56.0568 137.902 56.4194 137.23C56.7821 136.548 57.2781 136.02 57.9074 135.646C58.5474 135.273 59.2568 135.086 60.0354 135.086C60.8034 135.086 61.4701 135.252 62.0354 135.582C62.6008 135.913 63.0221 136.329 63.2994 136.83V135.23H64.7714V143.998H63.2994V142.366C63.0114 142.878 62.5794 143.305 62.0034 143.646C61.4381 143.977 60.7768 144.142 60.0194 144.142C59.2408 144.142 58.5368 143.95 57.9074 143.566C57.2781 143.182 56.7821 142.644 56.4194 141.95C56.0568 141.257 55.8754 140.468 55.8754 139.582ZM63.2994 139.598C63.2994 138.937 63.1661 138.361 62.8994 137.87C62.6328 137.38 62.2701 137.006 61.8114 136.75C61.3634 136.484 60.8674 136.35 60.3234 136.35C59.7794 136.35 59.2834 136.478 58.8354 136.734C58.3874 136.99 58.0301 137.364 57.7634 137.854C57.4968 138.345 57.3634 138.921 57.3634 139.582C57.3634 140.254 57.4968 140.841 57.7634 141.342C58.0301 141.833 58.3874 142.212 58.8354 142.478C59.2834 142.734 59.7794 142.862 60.3234 142.862C60.8674 142.862 61.3634 142.734 61.8114 142.478C62.2701 142.212 62.6328 141.833 62.8994 141.342C63.1661 140.841 63.2994 140.26 63.2994 139.598Z" fill="#1D1F23"/>
<path d="M68.688 136.846C68.976 136.345 69.4026 135.929 69.9679 135.598C70.5439 135.257 71.2106 135.086 71.9679 135.086C72.7466 135.086 73.4506 135.273 74.0799 135.646C74.7199 136.02 75.2213 136.548 75.5839 137.23C75.9466 137.902 76.1279 138.686 76.1279 139.582C76.1279 140.468 75.9466 141.257 75.5839 141.95C75.2213 142.644 74.7199 143.182 74.0799 143.566C73.4506 143.95 72.7466 144.142 71.9679 144.142C71.2213 144.142 70.5599 143.977 69.9839 143.646C69.4186 143.305 68.9866 142.884 68.688 142.382V148.158H67.2319V135.23H68.688V136.846ZM74.6399 139.582C74.6399 138.921 74.5066 138.345 74.2399 137.854C73.9733 137.364 73.6106 136.99 73.1519 136.734C72.7039 136.478 72.2079 136.35 71.6639 136.35C71.1306 136.35 70.6346 136.484 70.1759 136.75C69.7279 137.006 69.3653 137.385 69.0879 137.886C68.8213 138.377 68.688 138.948 68.688 139.598C68.688 140.26 68.8213 140.841 69.0879 141.342C69.3653 141.833 69.7279 142.212 70.1759 142.478C70.6346 142.734 71.1306 142.862 71.6639 142.862C72.2079 142.862 72.7039 142.734 73.1519 142.478C73.6106 142.212 73.9733 141.833 74.2399 141.342C74.5066 140.841 74.6399 140.254 74.6399 139.582Z" fill="#1D1F23"/>
<path d="M82.3964 135.07C83.0578 135.07 83.6551 135.214 84.1884 135.502C84.7218 135.78 85.1378 136.201 85.4364 136.766C85.7458 137.332 85.9004 138.02 85.9004 138.83V143.998H84.4604V139.038C84.4604 138.164 84.2418 137.497 83.8044 137.038C83.3671 136.569 82.7698 136.334 82.0124 136.334C81.2444 136.334 80.6311 136.574 80.1724 137.054C79.7244 137.534 79.5005 138.233 79.5005 139.15V143.998H78.0444V132.158H79.5005V136.478C79.7885 136.03 80.1831 135.684 80.6844 135.438C81.1964 135.193 81.7671 135.07 82.3964 135.07Z" fill="#1D1F23"/>
</svg>
