<svg width="216" height="168" viewBox="0 0 216 168" fill="none" xmlns="http://www.w3.org/2000/svg">
<path d="M12 2C6.48 2 2 6.48 2 12C2 17.52 6.48 22 12 22C17.52 22 22 17.52 22 12C22 6.48 17.52 2 12 2ZM12 20C7.59 20 4 16.41 4 12C4 7.59 7.59 4 12 4C16.41 4 20 7.59 20 12C20 16.41 16.41 20 12 20ZM7.07658 16.2593C6.88013 16.682 7.31799 17.1199 7.74073 16.9234L13.3472 14.318C13.7752 14.1191 14.1191 13.7752 14.318 13.3472L16.9234 7.74073C17.1199 7.31799 16.682 6.88013 16.2593 7.07658L10.6528 9.68197C10.2248 9.88089 9.88089 10.2248 9.68197 10.6528L7.07658 16.2593ZM12 10.9C12.61 10.9 13.1 11.39 13.1 12C13.1 12.61 12.61 13.1 12 13.1C11.39 13.1 10.9 12.61 10.9 12C10.9 11.39 11.39 10.9 12 10.9Z" fill="#1D1F23"/>
<path d="M70 7H68V4H65V2H69C69.5523 2 70 2.44772 70 3V7ZM69 22C69.5523 22 70 21.5523 70 21V17H68V20H65V22H69ZM50 21C50 21.5523 50.4477 22 51 22H55V20H52V17H50V21ZM51 2C50.4477 2 50 2.44772 50 3V7H52V4H55V2H51Z" fill="#1D1F23"/>
<path d="M112.5 3C110.76 3 109.09 3.81 108 5.09C106.91 3.81 105.24 3 103.5 3C100.42 3 98 5.42 98 8.5C98 12.28 101.4 15.36 106.55 20.04L107.327 20.742C107.709 21.087 108.29 21.0859 108.671 20.7395L109.45 20.03C114.6 15.36 118 12.28 118 8.5C118 5.42 115.58 3 112.5 3ZM108.1 18.55L108 18.65L107.9 18.55C103.14 14.24 100 11.39 100 8.5C100 6.5 101.5 5 103.5 5C105.04 5 106.54 5.99 107.07 7.36H108.94C109.46 5.99 110.96 5 112.5 5C114.5 5 116 6.5 116 8.5C116 11.39 112.86 14.24 108.1 18.55Z" fill="#1D1F23"/>
<path d="M149.778 4C148.806 4 148 4.80617 148 5.77778V18.2222C148 19.1938 148.806 20 149.778 20H162.222C163.194 20 164 19.1938 164 18.2222V12.5C164 12.2239 163.776 12 163.5 12H162.722C162.446 12 162.222 12.2239 162.222 12.5V18.2222H149.778V5.77778H155.5C155.776 5.77778 156 5.55392 156 5.27778V4.5C156 4.22386 155.776 4 155.5 4H149.778ZM158.278 4C158.002 4 157.778 4.22386 157.778 4.5V5.27778C157.778 5.55392 158.002 5.77778 158.278 5.77778H160.965L153.058 13.6846C152.863 13.8799 152.863 14.1965 153.058 14.3917L153.608 14.9416C153.804 15.1368 154.12 15.1368 154.315 14.9416L162.222 7.03472V9.72222C162.222 9.99836 162.446 10.2222 162.722 10.2222H163.5C163.776 10.2222 164 9.99836 164 9.72222V4.5C164 4.22386 163.776 4 163.5 4H158.278Z" fill="#1D1F23"/>
<path d="M207.057 7.76355C207.252 7.56823 207.252 7.25194 207.057 7.05683L206.354 6.35355C206.158 6.15829 205.842 6.15829 205.646 6.35355L200.354 11.6464C200.158 11.8417 200.158 12.1583 200.354 12.3536L205.646 17.6464C205.842 17.8417 206.158 17.8417 206.354 17.6464L207.057 16.9432C207.252 16.7481 207.252 16.4318 207.057 16.2364L202.83 12L207.057 7.76355Z" fill="#1D1F23"/>
<path d="M10.3534 54.3536C10.1581 54.1583 9.84155 54.1583 9.64629 54.3536L8.94301 55.0568C8.7479 55.2519 8.74773 55.5682 8.94263 55.7636L13.1698 60L8.94263 64.2364C8.74773 64.4318 8.7479 64.7481 8.94301 64.9432L9.64629 65.6464C9.84155 65.8417 10.1581 65.8417 10.3534 65.6464L15.6463 60.3536C15.8416 60.1583 15.8416 59.8417 15.6463 59.6464L10.3534 54.3536Z" fill="#1D1F23"/>
<path d="M55.7636 56.7436C55.5682 56.5487 55.2519 56.5488 55.0568 56.7439L54.3536 57.4472C54.1583 57.6425 54.1583 57.9591 54.3536 58.1543L59.6464 63.4472C59.8417 63.6425 60.1583 63.6425 60.3536 63.4472L65.6464 58.1543C65.8417 57.9591 65.8417 57.6425 65.6464 57.4472L64.9432 56.7439C64.7481 56.5488 64.4318 56.5487 64.2364 56.7436L60 60.9708L55.7636 56.7436Z" fill="#1D1F23"/>
<path d="M114.646 54.7636C114.842 54.5683 114.842 54.2517 114.646 54.0564L113.944 53.3536C113.748 53.1583 113.432 53.1583 113.236 53.3536L108 58.59L102.764 53.3536C102.568 53.1583 102.252 53.1583 102.056 53.3536L101.354 54.0564C101.158 54.2517 101.158 54.5683 101.354 54.7636L106.59 60L101.354 65.2364C101.158 65.4317 101.158 65.7483 101.354 65.9436L102.056 66.6464C102.252 66.8417 102.568 66.8417 102.764 66.6464L108 61.41L113.236 66.6464C113.432 66.8417 113.748 66.8417 113.944 66.6464L114.646 65.9436C114.842 65.7483 114.842 65.4317 114.646 65.2364L109.41 60L114.646 54.7636Z" fill="#1D1F23"/>
<path d="M163 60.5C163 60.7761 162.776 61 162.5 61H157V66.5C157 66.7761 156.776 67 156.5 67H155.5C155.224 67 155 66.7761 155 66.5V61H149.5C149.224 61 149 60.7761 149 60.5V59.5C149 59.2239 149.224 59 149.5 59H155V53.5C155 53.2239 155.224 53 155.5 53H156.5C156.776 53 157 53.2239 157 53.5V59H162.5C162.776 59 163 59.2239 163 59.5V60.5Z" fill="#1D1F23"/>
<path d="M198 58C196.9 58 196 58.9 196 60C196 61.1 196.9 62 198 62C199.1 62 200 61.1 200 60C200 58.9 199.1 58 198 58ZM210 58C208.9 58 208 58.9 208 60C208 61.1 208.9 62 210 62C211.1 62 212 61.1 212 60C212 58.9 211.1 58 210 58ZM204 58C202.9 58 202 58.9 202 60C202 61.1 202.9 62 204 62C205.1 62 206 61.1 206 60C206 58.9 205.1 58 204 58Z" fill="#1D1F23"/>
<path d="M14.5 109L14.43 109.73C15.41 108.59 16 107.11 16 105.5C16 101.91 13.09 99 9.5 99C5.91 99 3 101.91 3 105.5C3 109.09 5.91 112 9.5 112C11.11 112 12.59 111.41 13.73 110.43L13 110.5L19 116.49L20.49 115L14.5 109ZM9.5 110C7.01 110 5 107.99 5 105.5C5 103.01 7.01 101 9.5 101C11.99 101 14 103.01 14 105.5C14 107.99 11.99 110 9.5 110Z" fill="#1D1F23"/>
<path d="M64.9435 103.936C64.7485 103.74 64.4309 103.739 64.2352 103.935L58 110.17L55.7636 107.942C55.5682 107.748 55.2521 107.748 55.0571 107.943L54.3536 108.647C54.1583 108.842 54.1583 109.158 54.3536 109.354L57.6464 112.647C57.8417 112.842 58.1583 112.842 58.3536 112.647L65.6477 105.352C65.8425 105.158 65.843 104.842 65.6489 104.647L64.9435 103.936Z" fill="#1D1F23"/>
<path d="M112.5 105H111.75V103.571C111.75 101.6 110.07 100 108 100C105.93 100 104.25 101.6 104.25 103.571V105H103.5C102.675 105 102 105.643 102 106.429V113.571C102 114.357 102.675 115 103.5 115H112.5C113.325 115 114 114.357 114 113.571V106.429C114 105.643 113.325 105 112.5 105ZM105.75 103.571C105.75 102.386 106.755 101.429 108 101.429C109.245 101.429 110.25 102.386 110.25 103.571V105H105.75V103.571ZM112.5 113.571H103.5V106.429H112.5V113.571Z" fill="#1D1F23"/>
<path fill-rule="evenodd" clip-rule="evenodd" d="M154.964 98.1322C155.052 97.9111 155.396 97.9855 155.376 98.2212L154.663 106.518L160.299 104.736C160.725 104.601 161.123 104.999 160.964 105.401L156.036 117.868C155.948 118.089 155.604 118.014 155.624 117.779L156.337 109.482L150.701 111.264C150.275 111.399 149.877 111.001 150.036 110.599L154.964 98.1322Z" fill="#1D1F23"/>
<path d="M202 113.349C202 113.625 202.224 113.849 202.5 113.849H205.5C205.776 113.849 206 113.625 206 113.349V112.699C206 112.423 205.776 112.199 205.5 112.199H202.5C202.224 112.199 202 112.423 202 112.699V113.349ZM195.5 102.199C195.224 102.199 195 102.423 195 102.699V103.349C195 103.625 195.224 103.849 195.5 103.849H212.5C212.776 103.849 213 103.625 213 103.349V102.699C213 102.423 212.776 102.199 212.5 102.199H195.5ZM198 108.349C198 108.625 198.224 108.849 198.5 108.849H209.5C209.776 108.849 210 108.625 210 108.349V107.699C210 107.423 209.776 107.199 209.5 107.199H198.5C198.224 107.199 198 107.423 198 107.699V108.349Z" fill="#1D1F23"/>
<path d="M2.614 151.559C2.55148 151.433 2.60473 151.281 2.7319 151.221L7.42918 149.024C7.46235 149.008 7.49852 149 7.53513 149H9.04098C9.17905 149 9.28877 149.113 9.31279 149.249C9.48243 150.209 10.6209 150.952 12 150.952C13.3791 150.952 14.5176 150.209 14.6872 149.249C14.7112 149.113 14.821 149 14.959 149H16.4649C16.5015 149 16.5377 149.008 16.5708 149.024L21.2681 151.221C21.3953 151.281 21.4485 151.433 21.386 151.559L19.4085 155.536C19.3498 155.654 19.2098 155.706 19.0883 155.655L17.5838 155.027C17.4191 154.958 17.2374 155.079 17.2374 155.258V162.75C17.2374 162.888 17.1255 163 16.9874 163H7.01256C6.87449 163 6.76256 162.888 6.76256 162.75V155.258C6.76256 155.079 6.5809 154.958 6.4162 155.027L4.91174 155.655C4.79022 155.706 4.65017 155.654 4.59153 155.536L2.614 151.559Z" stroke="#1D1F23" stroke-width="1.5"/>
<path d="M66.007 149.699H53.993C53.8693 149.699 53.7642 149.79 53.7458 149.912L52.0358 161.279C52.0158 161.412 52.1044 161.537 52.2364 161.562L57.9842 162.654C58.1169 162.679 58.2455 162.595 58.2749 162.463L59.756 155.816C59.8141 155.555 60.1859 155.555 60.244 155.816L61.7251 162.463C61.7545 162.595 61.8831 162.679 62.0158 162.654L67.7636 161.562C67.8956 161.537 67.9842 161.412 67.9642 161.279L66.2542 149.912C66.2358 149.79 66.1307 149.699 66.007 149.699Z" stroke="#1D1F23" stroke-width="1.5"/>
<path d="M107 161.5C107 161.776 107.224 162 107.5 162H108.5C108.776 162 109 161.776 109 161.5V160.5C109 160.224 108.776 160 108.5 160H107.5C107.224 160 107 160.224 107 160.5V161.5ZM108 146C102.48 146 98 150.48 98 156C98 161.52 102.48 166 108 166C113.52 166 118 161.52 118 156C118 150.48 113.52 146 108 146ZM108 164C103.59 164 100 160.41 100 156C100 151.59 103.59 148 108 148C112.41 148 116 151.59 116 156C116 160.41 112.41 164 108 164ZM108 150C105.959 150 104.276 151.527 104.031 153.501C103.997 153.775 104.224 154 104.5 154H105.5C105.776 154 105.994 153.773 106.062 153.505C106.284 152.642 107.071 152 108 152C109.1 152 110 152.9 110 154C110 155.891 107.318 155.771 107.026 158.499C106.996 158.774 107.224 159 107.5 159H108.5C108.776 159 108.993 158.772 109.053 158.503C109.455 156.697 112 156.303 112 154C112 151.79 110.21 150 108 150Z" fill="#1D1F23"/>
<path d="M153 160.17L148.83 156L147.41 157.41L153 163L165 151L163.59 149.59L153 160.17Z" fill="#1D1F23"/>
<path d="M203.638 145.952C203.84 145.756 204.167 145.756 204.368 145.952L208.325 149.805C208.526 150.001 208.526 150.319 208.325 150.515L207.96 150.871C207.758 151.067 207.431 151.067 207.23 150.871L204.774 148.48V157.496C204.774 157.774 204.543 157.999 204.258 157.999H203.742C203.457 157.999 203.226 157.774 203.226 157.496V148.486L200.738 150.909C200.537 151.105 200.21 151.105 200.008 150.909L199.643 150.553C199.442 150.357 199.442 150.039 199.643 149.842L203.638 145.952Z" fill="#1D1F23"/>
<path d="M200.387 152.554C200.672 152.554 200.903 152.779 200.903 153.056V153.559C200.903 153.837 200.672 154.062 200.387 154.062H198.839C198.126 154.062 197.548 154.624 197.548 155.318V163.235C197.548 163.929 198.126 164.491 198.839 164.491H209.161C209.874 164.491 210.452 163.929 210.452 163.235V155.318C210.452 154.624 209.874 154.062 209.161 154.062H207.613C207.328 154.062 207.097 153.837 207.097 153.559V153.056C207.097 152.779 207.328 152.554 207.613 152.554H209.161C210.729 152.554 212 153.792 212 155.318V163.235C212 164.762 210.729 165.999 209.161 165.999H198.839C197.271 165.999 196 164.762 196 163.235V155.318C196 153.792 197.271 152.554 198.839 152.554H200.387Z" fill="#1D1F23"/>
</svg>
