<svg width="87" height="145" viewBox="0 0 87 145" fill="none" xmlns="http://www.w3.org/2000/svg">
<path d="M15.7566 144.365C11.6523 146.001 6.96952 144.007 5.63171 139.796C1.6898 127.389 -0.0571886 114.367 0.490924 101.318C1.15115 85.6014 5.12646 70.2014 12.1561 56.1285C19.1858 42.0556 29.111 29.6278 41.2809 19.66C51.3843 11.3848 62.8452 4.96036 75.133 0.659947C79.3033 -0.799534 83.7103 1.74678 84.8673 6.01086L86.3402 11.4386C87.4972 15.7027 84.962 20.0636 80.8175 21.5947C71.4617 25.051 62.7275 30.0455 54.9828 36.3889C45.1708 44.4254 37.1686 54.4454 31.5009 65.7916C25.8333 77.1379 22.6282 89.5541 22.0959 102.226C21.6757 112.228 22.9282 122.211 25.7841 131.768C27.0491 136.001 25.0851 140.647 20.9808 142.283L15.7566 144.365Z" fill="#272A2F"/>
</svg>
