<svg width="210" height="113" viewBox="0 0 210 113" fill="none" xmlns="http://www.w3.org/2000/svg">
<path d="M202 0.503906C206.418 0.503906 210.03 4.09071 209.712 8.49752C208.1 30.8289 199.763 52.2298 185.697 69.8573C169.961 89.579 147.981 103.416 123.337 109.113C98.6928 114.811 72.837 112.035 49.9805 101.236C29.5572 91.5868 12.6038 76.0406 1.27096 56.7103C-0.969233 52.8892 0.696803 48.0632 4.67623 46.1182L9.8155 43.6062C13.7751 41.6709 18.524 43.3254 20.8163 47.0896C29.9391 62.0702 43.2984 74.1232 59.3011 81.6838C77.7211 90.3865 98.5583 92.6241 118.419 88.0322C138.279 83.4403 155.993 72.2895 168.675 56.3958C179.685 42.5975 186.34 25.9303 187.903 8.49361C188.298 4.09298 191.842 0.503906 196.261 0.503906H202Z" fill="#DFFE4B"/>
</svg>
