<svg width="130" height="103" viewBox="0 0 130 103" fill="none" xmlns="http://www.w3.org/2000/svg">
<path d="M0.91707 9.98479C0.145932 5.63433 3.0469 1.45226 7.44142 0.994675C20.0219 -0.315274 32.7536 0.520908 45.0893 3.48665C60.0221 7.07679 74.0533 13.7103 86.3047 22.9721C98.5561 32.2339 108.764 43.9246 116.29 57.3127C122.507 68.3723 126.783 80.3936 128.953 92.8545C129.711 97.2073 126.478 101.139 122.082 101.583L116.484 102.149C112.088 102.593 108.2 99.3791 107.367 95.0401C105.543 85.5382 102.195 76.375 97.4371 67.9104C91.3696 57.1167 83.1397 47.6914 73.2624 40.2244C63.385 32.7574 52.0728 27.4093 40.0337 24.5149C30.5925 22.245 20.8636 21.5224 11.2244 22.3585C6.8227 22.7403 2.67038 19.8763 1.89924 15.5258L0.91707 9.98479Z" fill="#F5F7F9"/>
</svg>
