<svg width="36" height="138" viewBox="0 0 36 138" fill="none" xmlns="http://www.w3.org/2000/svg">
<rect y="48.3906" width="35.8442" height="35.8442" rx="7.16883" fill="#DFFE4B"/>
<g clip-path="url(#clip0_159_6841)">
<path d="M28.3764 61.0847H26.2855V57.9483H23.1491V55.8574H27.4803C27.9752 55.8574 28.3764 56.2586 28.3764 56.7535V61.0847ZM27.4803 76.7665C27.9752 76.7665 28.3764 76.3653 28.3764 75.8704V71.5392H26.2855V74.6756H23.1491V76.7665H27.4803ZM7.46729 75.8704C7.46729 76.3653 7.86848 76.7665 8.36339 76.7665H12.6946V74.6756H9.55819V71.5392H7.46729V75.8704ZM8.36339 55.8574C7.86849 55.8574 7.46729 56.2586 7.46729 56.7535V61.0847H9.55819V57.9483H12.6946V55.8574H8.36339Z" fill="#1D1F23"/>
</g>
<g clip-path="url(#clip1_159_6841)">
<path d="M17.9218 2.0918C12.1509 2.0918 7.46729 6.77543 7.46729 12.5463C7.46729 18.3172 12.1509 23.0009 17.9218 23.0009C23.6927 23.0009 28.3764 18.3172 28.3764 12.5463C28.3764 6.77543 23.6927 2.0918 17.9218 2.0918ZM17.9218 20.91C13.3114 20.91 9.55819 17.1568 9.55819 12.5463C9.55819 7.93589 13.3114 4.18271 17.9218 4.18271C22.5323 4.18271 26.2855 7.93589 26.2855 12.5463C26.2855 17.1568 22.5323 20.91 17.9218 20.91ZM12.6885 17.1845C12.5125 17.5633 12.9048 17.9557 13.2837 17.7797L19.4292 14.9237C19.8128 14.7455 20.121 14.4373 20.2992 14.0537L23.1551 7.90816C23.3312 7.52935 22.9388 7.13698 22.56 7.31302L16.4144 10.169C16.0309 10.3472 15.7227 10.6554 15.5444 11.0389L12.6885 17.1845ZM17.9218 11.3963C18.5596 11.3963 19.0718 11.9086 19.0718 12.5463C19.0718 13.1841 18.5596 13.6963 17.9218 13.6963C17.2841 13.6963 16.7718 13.1841 16.7718 12.5463C16.7718 11.9086 17.2841 11.3963 17.9218 11.3963Z" fill="#1D1F23"/>
</g>
<g clip-path="url(#clip2_159_6841)">
<path d="M22.6264 116.045C20.8073 116.045 19.0614 116.892 17.9218 118.23C16.7823 116.892 15.0364 116.045 13.2173 116.045C9.99728 116.045 7.46729 118.575 7.46729 121.795C7.46729 125.747 11.0218 128.967 16.4059 133.859L17.3188 134.684C17.661 134.993 18.1818 134.992 18.5228 134.682L19.4377 133.849C24.8218 128.967 28.3764 125.747 28.3764 121.795C28.3764 118.575 25.8464 116.045 22.6264 116.045ZM18.0264 132.302L17.9218 132.406L17.8173 132.302C12.8409 127.796 9.55819 124.816 9.55819 121.795C9.55819 119.704 11.1264 118.136 13.2173 118.136C14.8273 118.136 16.3955 119.171 16.9496 120.603H18.9046C19.4482 119.171 21.0164 118.136 22.6264 118.136C24.7173 118.136 26.2855 119.704 26.2855 121.795C26.2855 124.816 23.0027 127.796 18.0264 132.302Z" fill="#1D1F23"/>
</g>
<defs>
<clipPath id="clip0_159_6841">
<rect width="25.0909" height="25.0909" fill="white" transform="translate(5.37646 53.7656)"/>
</clipPath>
<clipPath id="clip1_159_6841">
<rect width="25.0909" height="25.0909" fill="white" transform="translate(5.37646)"/>
</clipPath>
<clipPath id="clip2_159_6841">
<rect width="25.0909" height="25.0909" fill="white" transform="translate(5.37646 112.908)"/>
</clipPath>
</defs>
</svg>
