<svg width="51" height="51" viewBox="0 0 51 51" fill="none" xmlns="http://www.w3.org/2000/svg">
<rect width="50.4721" height="50.4721" transform="translate(0.304688 0.142578)" fill="#DFFE4B"/>
<g clip-path="url(#clip0_159_6846)">
<path d="M29.5965 17.2676C28.0283 17.2676 26.5231 17.9976 25.5407 19.1513C24.5583 17.9976 23.0532 17.2676 21.4849 17.2676C18.7089 17.2676 16.5278 19.4487 16.5278 22.2247C16.5278 25.6315 19.5922 28.4075 24.2338 32.6255L24.9342 33.2583C25.2783 33.5692 25.8022 33.5682 26.1451 33.256L26.8476 32.6165C31.4892 28.4075 34.5536 25.6315 34.5536 22.2247C34.5536 19.4487 32.3725 17.2676 29.5965 17.2676ZM25.6308 31.2826L25.5407 31.3727L25.4506 31.2826C21.1604 27.3981 18.3304 24.8294 18.3304 22.2247C18.3304 20.4221 19.6823 19.0702 21.4849 19.0702C22.8729 19.0702 24.2248 19.9624 24.7025 21.1972H26.3879C26.8566 19.9624 28.2085 19.0702 29.5965 19.0702C31.3991 19.0702 32.751 20.4221 32.751 22.2247C32.751 24.8294 29.921 27.3981 25.6308 31.2826Z" fill="#1D1F23"/>
</g>
<defs>
<clipPath id="clip0_159_6846">
<rect width="21.6309" height="21.6309" fill="white" transform="translate(14.7251 14.5625)"/>
</clipPath>
</defs>
</svg>
