<svg width="337" height="145" viewBox="0 0 337 145" fill="none" xmlns="http://www.w3.org/2000/svg">
<rect y="0.816406" width="289" height="53.176" rx="9.248" fill="#EBEEF1"/>
<rect x="5.06128" y="5.60547" width="65.8187" height="43.624" rx="6.12267" fill="#DDE1E6"/>
<path d="M17.3918 40.1562V34.0336H21.2305V34.8288H18.3156V36.6943H21.0302V37.4866H18.3156V39.361H21.2663V40.1562H17.3918ZM23.2865 37.4298V40.1562H22.3927V35.5643H23.2507V36.3116H23.3075C23.4131 36.0685 23.5785 35.8732 23.8037 35.7257C24.031 35.5782 24.317 35.5045 24.6618 35.5045C24.9747 35.5045 25.2487 35.5702 25.4839 35.7018C25.7191 35.8313 25.9014 36.0246 26.031 36.2818C26.1605 36.5389 26.2253 36.8567 26.2253 37.2354V40.1562H25.3314V37.3431C25.3314 37.0102 25.2447 36.7501 25.0713 36.5628C24.8979 36.3734 24.6598 36.2788 24.3568 36.2788C24.1495 36.2788 23.9652 36.3236 23.8037 36.4133C23.6443 36.503 23.5177 36.6345 23.4241 36.8079C23.3324 36.9793 23.2865 37.1866 23.2865 37.4298ZM29.5677 35.5643V36.2818H27.0594V35.5643H29.5677ZM27.7321 34.4641H28.6259V38.8079C28.6259 38.9813 28.6519 39.1119 28.7037 39.1996C28.7555 39.2853 28.8223 39.3441 28.904 39.376C28.9877 39.4059 29.0784 39.4208 29.176 39.4208C29.2478 39.4208 29.3106 39.4158 29.3644 39.4059C29.4182 39.3959 29.46 39.3879 29.4899 39.3819L29.6514 40.1204C29.5995 40.1403 29.5258 40.1602 29.4301 40.1802C29.3345 40.2021 29.2149 40.214 29.0714 40.216C28.8362 40.22 28.617 40.1782 28.4137 40.0905C28.2104 40.0028 28.046 39.8673 27.9204 39.6839C27.7948 39.5005 27.7321 39.2703 27.7321 38.9933V34.4641ZM32.2261 40.2459C31.8554 40.2459 31.5246 40.1513 31.2336 39.9619C30.9446 39.7706 30.7174 39.4985 30.552 39.1458C30.3885 38.791 30.3068 38.3655 30.3068 37.8692C30.3068 37.3729 30.3895 36.9484 30.555 36.5957C30.7224 36.2429 30.9516 35.9728 31.2426 35.7855C31.5336 35.5981 31.8634 35.5045 32.2321 35.5045C32.5171 35.5045 32.7463 35.5523 32.9197 35.648C33.0951 35.7416 33.2306 35.8513 33.3263 35.9768C33.424 36.1024 33.4997 36.213 33.5535 36.3087H33.6073V34.0336H34.5012V40.1562H33.6283V39.4417H33.5535C33.4997 39.5394 33.422 39.651 33.3203 39.7766C33.2207 39.9021 33.0832 40.0118 32.9078 40.1054C32.7324 40.1991 32.5052 40.2459 32.2261 40.2459ZM32.4235 39.4836C32.6806 39.4836 32.8978 39.4158 33.0752 39.2803C33.2546 39.1428 33.3901 38.9524 33.4818 38.7093C33.5754 38.4661 33.6223 38.1831 33.6223 37.8603C33.6223 37.5414 33.5764 37.2623 33.4848 37.0232C33.3931 36.784 33.2585 36.5976 33.0812 36.4641C32.9038 36.3306 32.6845 36.2638 32.4235 36.2638C32.1544 36.2638 31.9302 36.3336 31.7508 36.4731C31.5714 36.6126 31.4359 36.8029 31.3442 37.0441C31.2545 37.2853 31.2097 37.5573 31.2097 37.8603C31.2097 38.1672 31.2555 38.4432 31.3472 38.6884C31.4389 38.9335 31.5744 39.1278 31.7538 39.2713C31.9352 39.4128 32.1584 39.4836 32.4235 39.4836ZM37.7561 40.2489C37.3037 40.2489 36.9141 40.1523 36.5872 39.9589C36.2623 39.7636 36.0112 39.4896 35.8338 39.1368C35.6584 38.782 35.5707 38.3665 35.5707 37.8901C35.5707 37.4198 35.6584 37.0052 35.8338 36.6465C36.0112 36.2877 36.2583 36.0077 36.5752 35.8064C36.8941 35.6051 37.2668 35.5045 37.6933 35.5045C37.9524 35.5045 38.2036 35.5473 38.4467 35.633C38.6899 35.7187 38.9081 35.8532 39.1014 36.0366C39.2948 36.22 39.4472 36.4581 39.5588 36.7511C39.6705 37.0421 39.7263 37.3959 39.7263 37.8124V38.1293H36.076V37.4596H38.8503C38.8503 37.2245 38.8025 37.0162 38.7068 36.8348C38.6111 36.6515 38.4766 36.507 38.3032 36.4013C38.1318 36.2957 37.9305 36.2429 37.6993 36.2429C37.4482 36.2429 37.229 36.3047 37.0416 36.4282C36.8563 36.5498 36.7128 36.7093 36.6111 36.9066C36.5115 37.1019 36.4616 37.3142 36.4616 37.5434V38.0665C36.4616 38.3735 36.5155 38.6346 36.6231 38.8498C36.7327 39.0651 36.8852 39.2295 37.0805 39.3431C37.2758 39.4547 37.504 39.5105 37.7651 39.5105C37.9345 39.5105 38.089 39.4866 38.2285 39.4388C38.368 39.3889 38.4886 39.3152 38.5902 39.2175C38.6919 39.1199 38.7696 38.9993 38.8234 38.8558L39.6695 39.0083C39.6017 39.2574 39.4801 39.4756 39.3047 39.663C39.1313 39.8483 38.9131 39.9928 38.65 40.0965C38.3889 40.1981 38.091 40.2489 37.7561 40.2489ZM42.6523 40.2489C42.2079 40.2489 41.8252 40.1483 41.5043 39.947C41.1854 39.7437 40.9403 39.4637 40.7689 39.1069C40.5975 38.7501 40.5118 38.3416 40.5118 37.8812C40.5118 37.4148 40.5995 37.0032 40.7749 36.6465C40.9502 36.2877 41.1974 36.0077 41.5163 35.8064C41.8352 35.6051 42.2109 35.5045 42.6433 35.5045C42.9921 35.5045 43.3031 35.5692 43.5761 35.6988C43.8491 35.8263 44.0694 36.0057 44.2368 36.2369C44.4062 36.4681 44.5069 36.7382 44.5387 37.0471H43.6688C43.6209 36.8318 43.5113 36.6465 43.3399 36.491C43.1705 36.3356 42.9433 36.2578 42.6583 36.2578C42.4092 36.2578 42.1909 36.3236 42.0036 36.4551C41.8182 36.5847 41.6737 36.77 41.5701 37.0112C41.4664 37.2504 41.4146 37.5334 41.4146 37.8603C41.4146 38.1951 41.4655 38.4841 41.5671 38.7272C41.6687 38.9704 41.8122 39.1587 41.9976 39.2923C42.1849 39.4258 42.4052 39.4926 42.6583 39.4926C42.8277 39.4926 42.9812 39.4617 43.1187 39.3999C43.2582 39.3361 43.3748 39.2454 43.4685 39.1278C43.5641 39.0102 43.6309 38.8687 43.6688 38.7033H44.5387C44.5069 39.0003 44.4102 39.2654 44.2488 39.4985C44.0873 39.7317 43.8711 39.9151 43.6 40.0486C43.331 40.1822 43.0151 40.2489 42.6523 40.2489ZM46.3168 38.5987L46.3108 37.5075H46.4663L48.2959 35.5643H49.3662L47.2794 37.7765H47.1389L46.3168 38.5987ZM45.4947 40.1562V34.0336H46.3885V40.1562H45.4947ZM48.3946 40.1562L46.7503 37.9739L47.3661 37.349L49.4917 40.1562H48.3946ZM51.9708 40.2489C51.5184 40.2489 51.1288 40.1523 50.8019 39.9589C50.4771 39.7636 50.2259 39.4896 50.0485 39.1368C49.8732 38.782 49.7855 38.3665 49.7855 37.8901C49.7855 37.4198 49.8732 37.0052 50.0485 36.6465C50.2259 36.2877 50.4731 36.0077 50.79 35.8064C51.1089 35.6051 51.4816 35.5045 51.9081 35.5045C52.1672 35.5045 52.4183 35.5473 52.6614 35.633C52.9046 35.7187 53.1228 35.8532 53.3162 36.0366C53.5095 36.22 53.662 36.4581 53.7736 36.7511C53.8852 37.0421 53.941 37.3959 53.941 37.8124V38.1293H50.2907V37.4596H53.065C53.065 37.2245 53.0172 37.0162 52.9215 36.8348C52.8259 36.6515 52.6913 36.507 52.5179 36.4013C52.3465 36.2957 52.1452 36.2429 51.914 36.2429C51.6629 36.2429 51.4437 36.3047 51.2563 36.4282C51.071 36.5498 50.9275 36.7093 50.8258 36.9066C50.7262 37.1019 50.6764 37.3142 50.6764 37.5434V38.0665C50.6764 38.3735 50.7302 38.6346 50.8378 38.8498C50.9474 39.0651 51.0999 39.2295 51.2952 39.3431C51.4905 39.4547 51.7187 39.5105 51.9798 39.5105C52.1492 39.5105 52.3037 39.4866 52.4432 39.4388C52.5827 39.3889 52.7033 39.3152 52.8049 39.2175C52.9066 39.1199 52.9843 38.9993 53.0381 38.8558L53.8842 39.0083C53.8164 39.2574 53.6948 39.4756 53.5195 39.663C53.3461 39.8483 53.1278 39.9928 52.8647 40.0965C52.6036 40.1981 52.3057 40.2489 51.9708 40.2489ZM55.8267 37.4298V40.1562H54.9328V35.5643H55.7908V36.3116H55.8476C55.9532 36.0685 56.1186 35.8732 56.3439 35.7257C56.5711 35.5782 56.8571 35.5045 57.2019 35.5045C57.5148 35.5045 57.7888 35.5702 58.024 35.7018C58.2592 35.8313 58.4416 36.0246 58.5711 36.2818C58.7006 36.5389 58.7654 36.8567 58.7654 37.2354V40.1562H57.8715V37.3431C57.8715 37.0102 57.7848 36.7501 57.6114 36.5628C57.438 36.3734 57.1999 36.2788 56.8969 36.2788C56.6897 36.2788 56.5053 36.3236 56.3439 36.4133C56.1844 36.503 56.0579 36.6345 55.9642 36.8079C55.8725 36.9793 55.8267 37.1866 55.8267 37.4298Z" fill="black"/>
<path d="M96.8101 35.642C96.7782 35.359 96.6467 35.1397 96.4155 34.9843C96.1843 34.8268 95.8933 34.7481 95.5425 34.7481C95.2914 34.7481 95.0742 34.788 94.8908 34.8677C94.7074 34.9454 94.5649 35.053 94.4633 35.1906C94.3636 35.3261 94.3138 35.4805 94.3138 35.6539C94.3138 35.7994 94.3477 35.925 94.4155 36.0306C94.4852 36.1363 94.5759 36.2249 94.6875 36.2967C94.8011 36.3665 94.9227 36.4253 95.0522 36.4731C95.1818 36.5189 95.3063 36.5568 95.4259 36.5867L96.0238 36.7421C96.2192 36.79 96.4195 36.8548 96.6248 36.9365C96.83 37.0182 97.0204 37.1258 97.1958 37.2593C97.3712 37.3929 97.5127 37.5583 97.6203 37.7556C97.7299 37.9529 97.7847 38.1891 97.7847 38.4641C97.7847 38.8109 97.695 39.1189 97.5157 39.3879C97.3383 39.657 97.0802 39.8693 96.7413 40.0247C96.4045 40.1802 95.9969 40.2579 95.5186 40.2579C95.0602 40.2579 94.6636 40.1851 94.3288 40.0397C93.9939 39.8942 93.7318 39.6879 93.5425 39.4208C93.3532 39.1518 93.2485 38.8329 93.2286 38.4641H94.1554C94.1733 38.6854 94.245 38.8697 94.3706 39.0172C94.4982 39.1627 94.6606 39.2713 94.8579 39.3431C95.0572 39.4128 95.2755 39.4477 95.5126 39.4477C95.7737 39.4477 96.0059 39.4069 96.2092 39.3251C96.4145 39.2414 96.5759 39.1258 96.6935 38.9784C96.8111 38.8289 96.8699 38.6545 96.8699 38.4552C96.8699 38.2738 96.8181 38.1253 96.7144 38.0097C96.6128 37.8941 96.4743 37.7985 96.2989 37.7227C96.1255 37.647 95.9292 37.5802 95.7099 37.5224L94.9865 37.3251C94.4962 37.1916 94.1075 36.9953 93.8205 36.7362C93.5355 36.4771 93.393 36.1343 93.393 35.7078C93.393 35.355 93.4887 35.0471 93.68 34.784C93.8713 34.5209 94.1304 34.3166 94.4573 34.1711C94.7842 34.0236 95.1529 33.9499 95.5635 33.9499C95.978 33.9499 96.3437 34.0226 96.6606 34.1681C96.9795 34.3136 97.2306 34.5139 97.414 34.769C97.5974 35.0221 97.693 35.3131 97.701 35.642H96.8101ZM100.751 40.2489C100.307 40.2489 99.924 40.1483 99.6031 39.947C99.2842 39.7437 99.0391 39.4637 98.8677 39.1069C98.6963 38.7501 98.6106 38.3416 98.6106 37.8812C98.6106 37.4148 98.6983 37.0032 98.8737 36.6465C99.0491 36.2877 99.2962 36.0077 99.6151 35.8064C99.934 35.6051 100.31 35.5045 100.742 35.5045C101.091 35.5045 101.402 35.5692 101.675 35.6988C101.948 35.8263 102.168 36.0057 102.336 36.2369C102.505 36.4681 102.606 36.7382 102.638 37.0471H101.768C101.72 36.8318 101.61 36.6465 101.439 36.491C101.269 36.3356 101.042 36.2578 100.757 36.2578C100.508 36.2578 100.29 36.3236 100.102 36.4551C99.917 36.5847 99.7725 36.77 99.6689 37.0112C99.5653 37.2504 99.5134 37.5334 99.5134 37.8603C99.5134 38.1951 99.5643 38.4841 99.6659 38.7272C99.7676 38.9704 99.9111 39.1587 100.096 39.2923C100.284 39.4258 100.504 39.4926 100.757 39.4926C100.927 39.4926 101.08 39.4617 101.218 39.3999C101.357 39.3361 101.474 39.2454 101.567 39.1278C101.663 39.0102 101.73 38.8687 101.768 38.7033H102.638C102.606 39.0003 102.509 39.2654 102.348 39.4985C102.186 39.7317 101.97 39.9151 101.699 40.0486C101.43 40.1822 101.114 40.2489 100.751 40.2489ZM104.93 40.2579C104.639 40.2579 104.376 40.2041 104.141 40.0965C103.905 39.9868 103.719 39.8284 103.582 39.6211C103.446 39.4138 103.378 39.1597 103.378 38.8588C103.378 38.5997 103.428 38.3864 103.528 38.219C103.627 38.0516 103.762 37.919 103.931 37.8214C104.101 37.7237 104.29 37.65 104.499 37.6002C104.709 37.5503 104.922 37.5125 105.139 37.4866C105.414 37.4547 105.637 37.4288 105.809 37.4088C105.98 37.3869 106.105 37.352 106.182 37.3042C106.26 37.2564 106.299 37.1786 106.299 37.071V37.0501C106.299 36.789 106.225 36.5867 106.078 36.4432C105.932 36.2997 105.715 36.2279 105.426 36.2279C105.125 36.2279 104.888 36.2947 104.715 36.4282C104.543 36.5598 104.425 36.7063 104.359 36.8677L103.519 36.6764C103.618 36.3973 103.764 36.1721 103.955 36.0007C104.149 35.8273 104.371 35.7018 104.622 35.624C104.873 35.5443 105.137 35.5045 105.414 35.5045C105.597 35.5045 105.792 35.5264 105.997 35.5702C106.204 35.6121 106.398 35.6898 106.577 35.8034C106.758 35.917 106.907 36.0795 107.023 36.2907C107.138 36.5 107.196 36.772 107.196 37.1069V40.1562H106.323V39.5284H106.287C106.229 39.644 106.143 39.7576 106.027 39.8693C105.911 39.9809 105.763 40.0735 105.582 40.1473C105.4 40.221 105.183 40.2579 104.93 40.2579ZM105.124 39.5404C105.371 39.5404 105.583 39.4916 105.758 39.3939C105.935 39.2962 106.07 39.1687 106.162 39.0112C106.255 38.8518 106.302 38.6814 106.302 38.5V37.9081C106.27 37.94 106.208 37.9699 106.117 37.9978C106.027 38.0237 105.924 38.0466 105.809 38.0665C105.693 38.0845 105.581 38.1014 105.471 38.1174C105.361 38.1313 105.27 38.1433 105.196 38.1532C105.022 38.1752 104.864 38.212 104.721 38.2638C104.579 38.3157 104.465 38.3904 104.38 38.4881C104.296 38.5837 104.254 38.7113 104.254 38.8707C104.254 39.092 104.336 39.2594 104.499 39.373C104.663 39.4846 104.871 39.5404 105.124 39.5404ZM109.28 37.4298V40.1562H108.387V35.5643H109.245V36.3116H109.301C109.407 36.0685 109.572 35.8732 109.798 35.7257C110.025 35.5782 110.311 35.5045 110.656 35.5045C110.969 35.5045 111.243 35.5702 111.478 35.7018C111.713 35.8313 111.895 36.0246 112.025 36.2818C112.154 36.5389 112.219 36.8567 112.219 37.2354V40.1562H111.325V37.3431C111.325 37.0102 111.239 36.7501 111.065 36.5628C110.892 36.3734 110.654 36.2788 110.351 36.2788C110.143 36.2788 109.959 36.3236 109.798 36.4133C109.638 36.503 109.512 36.6345 109.418 36.8079C109.326 36.9793 109.28 37.1866 109.28 37.4298ZM114.312 37.4298V40.1562H113.418V35.5643H114.276V36.3116H114.333C114.438 36.0685 114.604 35.8732 114.829 35.7257C115.056 35.5782 115.342 35.5045 115.687 35.5045C116 35.5045 116.274 35.5702 116.509 35.7018C116.744 35.8313 116.927 36.0246 117.056 36.2818C117.186 36.5389 117.251 36.8567 117.251 37.2354V40.1562H116.357V37.3431C116.357 37.0102 116.27 36.7501 116.097 36.5628C115.923 36.3734 115.685 36.2788 115.382 36.2788C115.175 36.2788 114.991 36.3236 114.829 36.4133C114.67 36.503 114.543 36.6345 114.449 36.8079C114.358 36.9793 114.312 37.1866 114.312 37.4298ZM120.429 40.2489C119.976 40.2489 119.586 40.1523 119.26 39.9589C118.935 39.7636 118.684 39.4896 118.506 39.1368C118.331 38.782 118.243 38.3665 118.243 37.8901C118.243 37.4198 118.331 37.0052 118.506 36.6465C118.684 36.2877 118.931 36.0077 119.248 35.8064C119.567 35.6051 119.939 35.5045 120.366 35.5045C120.625 35.5045 120.876 35.5473 121.119 35.633C121.362 35.7187 121.581 35.8532 121.774 36.0366C121.967 36.22 122.12 36.4581 122.231 36.7511C122.343 37.0421 122.399 37.3959 122.399 37.8124V38.1293H118.748V37.4596H121.523C121.523 37.2245 121.475 37.0162 121.379 36.8348C121.284 36.6515 121.149 36.507 120.976 36.4013C120.804 36.2957 120.603 36.2429 120.372 36.2429C120.121 36.2429 119.901 36.3047 119.714 36.4282C119.529 36.5498 119.385 36.7093 119.284 36.9066C119.184 37.1019 119.134 37.3142 119.134 37.5434V38.0665C119.134 38.3735 119.188 38.6346 119.296 38.8498C119.405 39.0651 119.558 39.2295 119.753 39.3431C119.948 39.4547 120.176 39.5105 120.438 39.5105C120.607 39.5105 120.761 39.4866 120.901 39.4388C121.04 39.3889 121.161 39.3152 121.263 39.2175C121.364 39.1199 121.442 38.9993 121.496 38.8558L122.342 39.0083C122.274 39.2574 122.153 39.4756 121.977 39.663C121.804 39.8483 121.586 39.9928 121.322 40.0965C121.061 40.1981 120.763 40.2489 120.429 40.2489ZM124.284 37.4298V40.1562H123.39V35.5643H124.249V36.3116H124.305C124.411 36.0685 124.576 35.8732 124.802 35.7257C125.029 35.5782 125.315 35.5045 125.66 35.5045C125.972 35.5045 126.247 35.5702 126.482 35.7018C126.717 35.8313 126.899 36.0246 127.029 36.2818C127.158 36.5389 127.223 36.8567 127.223 37.2354V40.1562H126.329V37.3431C126.329 37.0102 126.243 36.7501 126.069 36.5628C125.896 36.3734 125.658 36.2788 125.355 36.2788C125.147 36.2788 124.963 36.3236 124.802 36.4133C124.642 36.503 124.516 36.6345 124.422 36.8079C124.33 36.9793 124.284 37.1866 124.284 37.4298Z" fill="black"/>
<path d="M164.586 34.0336H165.707L167.656 38.793H167.728L169.677 34.0336H170.798V40.1562H169.919V35.7257H169.863L168.057 40.1473H167.327L165.522 35.7227H165.465V40.1562H164.586V34.0336ZM174.049 40.2489C173.596 40.2489 173.207 40.1523 172.88 39.9589C172.555 39.7636 172.304 39.4896 172.126 39.1368C171.951 38.782 171.863 38.3665 171.863 37.8901C171.863 37.4198 171.951 37.0052 172.126 36.6465C172.304 36.2877 172.551 36.0077 172.868 35.8064C173.187 35.6051 173.559 35.5045 173.986 35.5045C174.245 35.5045 174.496 35.5473 174.739 35.633C174.982 35.7187 175.201 35.8532 175.394 36.0366C175.587 36.22 175.74 36.4581 175.851 36.7511C175.963 37.0421 176.019 37.3959 176.019 37.8124V38.1293H172.369V37.4596H175.143C175.143 37.2245 175.095 37.0162 174.999 36.8348C174.904 36.6515 174.769 36.507 174.596 36.4013C174.424 36.2957 174.223 36.2429 173.992 36.2429C173.741 36.2429 173.522 36.3047 173.334 36.4282C173.149 36.5498 173.005 36.7093 172.904 36.9066C172.804 37.1019 172.754 37.3142 172.754 37.5434V38.0665C172.754 38.3735 172.808 38.6346 172.916 38.8498C173.025 39.0651 173.178 39.2295 173.373 39.3431C173.568 39.4547 173.797 39.5105 174.058 39.5105C174.227 39.5105 174.382 39.4866 174.521 39.4388C174.661 39.3889 174.781 39.3152 174.883 39.2175C174.984 39.1199 175.062 38.9993 175.116 38.8558L175.962 39.0083C175.894 39.2574 175.773 39.4756 175.597 39.663C175.424 39.8483 175.206 39.9928 174.943 40.0965C174.682 40.1981 174.384 40.2489 174.049 40.2489ZM177.011 40.1562V35.5643H177.875V36.2937H177.923C178.006 36.0466 178.154 35.8522 178.365 35.7107C178.578 35.5672 178.819 35.4955 179.088 35.4955C179.144 35.4955 179.21 35.4975 179.286 35.5015C179.363 35.5055 179.424 35.5104 179.468 35.5164V36.3714C179.432 36.3615 179.368 36.3505 179.277 36.3386C179.185 36.3246 179.093 36.3176 179.002 36.3176C178.79 36.3176 178.602 36.3625 178.437 36.4522C178.273 36.5399 178.144 36.6624 178.048 36.8199C177.952 36.9753 177.905 37.1527 177.905 37.352V40.1562H177.011ZM181.064 38.5987L181.058 37.5075H181.213L183.043 35.5643H184.113L182.026 37.7765H181.886L181.064 38.5987ZM180.242 40.1562V34.0336H181.136V40.1562H180.242ZM183.142 40.1562L181.497 37.9739L182.113 37.349L184.239 40.1562H183.142ZM185.822 34.0336V40.1562H184.928V34.0336H185.822ZM187.024 40.1562V35.5643H187.918V40.1562H187.024ZM187.476 34.8557C187.32 34.8557 187.187 34.8039 187.075 34.7003C186.965 34.5946 186.911 34.4691 186.911 34.3236C186.911 34.1761 186.965 34.0505 187.075 33.9469C187.187 33.8413 187.32 33.7884 187.476 33.7884C187.631 33.7884 187.764 33.8413 187.873 33.9469C187.985 34.0505 188.041 34.1761 188.041 34.3236C188.041 34.4691 187.985 34.5946 187.873 34.7003C187.764 34.8039 187.631 34.8557 187.476 34.8557ZM192.562 36.6853L191.752 36.8288C191.718 36.7252 191.664 36.6265 191.59 36.5329C191.518 36.4392 191.421 36.3625 191.297 36.3027C191.174 36.2429 191.019 36.213 190.834 36.213C190.581 36.213 190.369 36.2698 190.2 36.3834C190.031 36.495 189.946 36.6395 189.946 36.8169C189.946 36.9704 190.003 37.0939 190.116 37.1876C190.23 37.2813 190.413 37.358 190.666 37.4178L191.396 37.5852C191.818 37.6829 192.133 37.8333 192.341 38.0366C192.548 38.2399 192.651 38.504 192.651 38.8289C192.651 39.1039 192.572 39.3491 192.412 39.5643C192.255 39.7776 192.035 39.945 191.752 40.0666C191.471 40.1881 191.145 40.2489 190.774 40.2489C190.26 40.2489 189.84 40.1393 189.515 39.9201C189.19 39.6988 188.991 39.3849 188.917 38.9784L189.781 38.8468C189.835 39.072 189.946 39.2424 190.113 39.358C190.281 39.4716 190.499 39.5284 190.768 39.5284C191.061 39.5284 191.295 39.4676 191.471 39.3461C191.646 39.2225 191.734 39.072 191.734 38.8946C191.734 38.7511 191.68 38.6306 191.572 38.5329C191.467 38.4352 191.304 38.3615 191.085 38.3117L190.308 38.1413C189.879 38.0436 189.562 37.8882 189.357 37.6749C189.154 37.4616 189.052 37.1916 189.052 36.8647C189.052 36.5937 189.128 36.3565 189.279 36.1532C189.431 35.9499 189.64 35.7915 189.907 35.6779C190.174 35.5623 190.48 35.5045 190.825 35.5045C191.321 35.5045 191.712 35.6121 191.997 35.8273C192.282 36.0406 192.47 36.3266 192.562 36.6853ZM195.778 35.5643V36.2818H193.27V35.5643H195.778ZM193.942 34.4641H194.836V38.8079C194.836 38.9813 194.862 39.1119 194.914 39.1996C194.966 39.2853 195.032 39.3441 195.114 39.376C195.198 39.4059 195.288 39.4208 195.386 39.4208C195.458 39.4208 195.521 39.4158 195.574 39.4059C195.628 39.3959 195.67 39.3879 195.7 39.3819L195.861 40.1204C195.81 40.1403 195.736 40.1602 195.64 40.1802C195.545 40.2021 195.425 40.214 195.282 40.216C195.046 40.22 194.827 40.1782 194.624 40.0905C194.421 40.0028 194.256 39.8673 194.131 39.6839C194.005 39.5005 193.942 39.2703 193.942 38.9933V34.4641ZM198.696 40.2489C198.244 40.2489 197.854 40.1523 197.527 39.9589C197.203 39.7636 196.951 39.4896 196.774 39.1368C196.599 38.782 196.511 38.3665 196.511 37.8901C196.511 37.4198 196.599 37.0052 196.774 36.6465C196.951 36.2877 197.199 36.0077 197.515 35.8064C197.834 35.6051 198.207 35.5045 198.634 35.5045C198.893 35.5045 199.144 35.5473 199.387 35.633C199.63 35.7187 199.848 35.8532 200.042 36.0366C200.235 36.22 200.387 36.4581 200.499 36.7511C200.611 37.0421 200.667 37.3959 200.667 37.8124V38.1293H197.016V37.4596H199.791C199.791 37.2245 199.743 37.0162 199.647 36.8348C199.551 36.6515 199.417 36.507 199.243 36.4013C199.072 36.2957 198.871 36.2429 198.64 36.2429C198.388 36.2429 198.169 36.3047 197.982 36.4282C197.797 36.5498 197.653 36.7093 197.551 36.9066C197.452 37.1019 197.402 37.3142 197.402 37.5434V38.0665C197.402 38.3735 197.456 38.6346 197.563 38.8498C197.673 39.0651 197.825 39.2295 198.021 39.3431C198.216 39.4547 198.444 39.5105 198.705 39.5105C198.875 39.5105 199.029 39.4866 199.169 39.4388C199.308 39.3889 199.429 39.3152 199.53 39.2175C199.632 39.1199 199.71 38.9993 199.764 38.8558L200.61 39.0083C200.542 39.2574 200.42 39.4756 200.245 39.663C200.072 39.8483 199.853 39.9928 199.59 40.0965C199.329 40.1981 199.031 40.2489 198.696 40.2489Z" fill="black"/>
<path d="M241.239 35.642C241.207 35.359 241.076 35.1397 240.844 34.9843C240.613 34.8268 240.322 34.7481 239.972 34.7481C239.72 34.7481 239.503 34.788 239.32 34.8677C239.136 34.9454 238.994 35.053 238.892 35.1906C238.793 35.3261 238.743 35.4805 238.743 35.6539C238.743 35.7994 238.777 35.925 238.844 36.0306C238.914 36.1363 239.005 36.2249 239.116 36.2967C239.23 36.3665 239.352 36.4253 239.481 36.4731C239.611 36.5189 239.735 36.5568 239.855 36.5867L240.453 36.7421C240.648 36.79 240.848 36.8548 241.054 36.9365C241.259 37.0182 241.449 37.1258 241.625 37.2593C241.8 37.3929 241.942 37.5583 242.049 37.7556C242.159 37.9529 242.214 38.1891 242.214 38.4641C242.214 38.8109 242.124 39.1189 241.945 39.3879C241.767 39.657 241.509 39.8693 241.17 40.0247C240.833 40.1802 240.426 40.2579 239.948 40.2579C239.489 40.2579 239.093 40.1851 238.758 40.0397C238.423 39.8942 238.161 39.6879 237.971 39.4208C237.782 39.1518 237.677 38.8329 237.658 38.4641H238.584C238.602 38.6854 238.674 38.8697 238.8 39.0172C238.927 39.1627 239.09 39.2713 239.287 39.3431C239.486 39.4128 239.704 39.4477 239.942 39.4477C240.203 39.4477 240.435 39.4069 240.638 39.3251C240.843 39.2414 241.005 39.1258 241.122 38.9784C241.24 38.8289 241.299 38.6545 241.299 38.4552C241.299 38.2738 241.247 38.1253 241.143 38.0097C241.042 37.8941 240.903 37.7985 240.728 37.7227C240.554 37.647 240.358 37.5802 240.139 37.5224L239.415 37.3251C238.925 37.1916 238.537 36.9953 238.25 36.7362C237.964 36.4771 237.822 36.1343 237.822 35.7078C237.822 35.355 237.918 35.0471 238.109 34.784C238.3 34.5209 238.559 34.3166 238.886 34.1711C239.213 34.0236 239.582 33.9499 239.992 33.9499C240.407 33.9499 240.773 34.0226 241.09 34.1681C241.408 34.3136 241.66 34.5139 241.843 34.769C242.026 35.0221 242.122 35.3131 242.13 35.642H241.239ZM245.225 40.2489C244.773 40.2489 244.383 40.1523 244.056 39.9589C243.731 39.7636 243.48 39.4896 243.303 39.1368C243.127 38.782 243.04 38.3665 243.04 37.8901C243.04 37.4198 243.127 37.0052 243.303 36.6465C243.48 36.2877 243.727 36.0077 244.044 35.8064C244.363 35.6051 244.736 35.5045 245.162 35.5045C245.421 35.5045 245.672 35.5473 245.916 35.633C246.159 35.7187 246.377 35.8532 246.57 36.0366C246.764 36.22 246.916 36.4581 247.028 36.7511C247.139 37.0421 247.195 37.3959 247.195 37.8124V38.1293H243.545V37.4596H246.319C246.319 37.2245 246.271 37.0162 246.176 36.8348C246.08 36.6515 245.945 36.507 245.772 36.4013C245.601 36.2957 245.399 36.2429 245.168 36.2429C244.917 36.2429 244.698 36.3047 244.51 36.4282C244.325 36.5498 244.182 36.7093 244.08 36.9066C243.98 37.1019 243.93 37.3142 243.93 37.5434V38.0665C243.93 38.3735 243.984 38.6346 244.092 38.8498C244.202 39.0651 244.354 39.2295 244.549 39.3431C244.745 39.4547 244.973 39.5105 245.234 39.5105C245.403 39.5105 245.558 39.4866 245.697 39.4388C245.837 39.3889 245.957 39.3152 246.059 39.2175C246.161 39.1199 246.238 38.9993 246.292 38.8558L247.138 39.0083C247.071 39.2574 246.949 39.4756 246.774 39.663C246.6 39.8483 246.382 39.9928 246.119 40.0965C245.858 40.1981 245.56 40.2489 245.225 40.2489ZM250.33 35.5643V36.2818H247.822V35.5643H250.33ZM248.495 34.4641H249.389V38.8079C249.389 38.9813 249.415 39.1119 249.466 39.1996C249.518 39.2853 249.585 39.3441 249.667 39.376C249.75 39.4059 249.841 39.4208 249.939 39.4208C250.011 39.4208 250.073 39.4158 250.127 39.4059C250.181 39.3959 250.223 39.3879 250.253 39.3819L250.414 40.1204C250.362 40.1403 250.289 40.1602 250.193 40.1802C250.097 40.2021 249.978 40.214 249.834 40.216C249.599 40.22 249.38 40.1782 249.176 40.0905C248.973 40.0028 248.809 39.8673 248.683 39.6839C248.558 39.5005 248.495 39.2703 248.495 38.9933V34.4641ZM253.463 35.5643V36.2818H250.954V35.5643H253.463ZM251.627 34.4641H252.521V38.8079C252.521 38.9813 252.547 39.1119 252.599 39.1996C252.651 39.2853 252.717 39.3441 252.799 39.376C252.883 39.4059 252.973 39.4208 253.071 39.4208C253.143 39.4208 253.206 39.4158 253.259 39.4059C253.313 39.3959 253.355 39.3879 253.385 39.3819L253.546 40.1204C253.495 40.1403 253.421 40.1602 253.325 40.1802C253.23 40.2021 253.11 40.214 252.966 40.216C252.731 40.22 252.512 40.1782 252.309 40.0905C252.105 40.0028 251.941 39.8673 251.815 39.6839C251.69 39.5005 251.627 39.2703 251.627 38.9933V34.4641ZM254.452 40.1562V35.5643H255.345V40.1562H254.452ZM254.903 34.8557C254.748 34.8557 254.614 34.8039 254.502 34.7003C254.393 34.5946 254.338 34.4691 254.338 34.3236C254.338 34.1761 254.393 34.0505 254.502 33.9469C254.614 33.8413 254.748 33.7884 254.903 33.7884C255.058 33.7884 255.191 33.8413 255.301 33.9469C255.412 34.0505 255.468 34.1761 255.468 34.3236C255.468 34.4691 255.412 34.5946 255.301 34.7003C255.191 34.8039 255.058 34.8557 254.903 34.8557ZM257.442 37.4298V40.1562H256.548V35.5643H257.406V36.3116H257.463C257.568 36.0685 257.734 35.8732 257.959 35.7257C258.186 35.5782 258.472 35.5045 258.817 35.5045C259.13 35.5045 259.404 35.5702 259.639 35.7018C259.874 35.8313 260.057 36.0246 260.186 36.2818C260.316 36.5389 260.381 36.8567 260.381 37.2354V40.1562H259.487V37.3431C259.487 37.0102 259.4 36.7501 259.227 36.5628C259.053 36.3734 258.815 36.2788 258.512 36.2788C258.305 36.2788 258.121 36.3236 257.959 36.4133C257.8 36.503 257.673 36.6345 257.579 36.8079C257.488 36.9793 257.442 37.1866 257.442 37.4298ZM263.505 41.9739C263.14 41.9739 262.826 41.9261 262.563 41.8304C262.302 41.7347 262.089 41.6082 261.923 41.4507C261.758 41.2933 261.634 41.1209 261.553 40.9335L262.321 40.6166C262.375 40.7043 262.446 40.797 262.536 40.8947C262.628 40.9943 262.751 41.079 262.907 41.1488C263.064 41.2185 263.267 41.2534 263.514 41.2534C263.853 41.2534 264.133 41.1707 264.354 41.0053C264.575 40.8419 264.686 40.5808 264.686 40.222V39.3192H264.629C264.575 39.4168 264.497 39.5254 264.396 39.645C264.296 39.7646 264.158 39.8683 263.983 39.9559C263.808 40.0436 263.579 40.0875 263.298 40.0875C262.936 40.0875 262.609 40.0028 262.318 39.8334C262.029 39.662 261.8 39.4099 261.63 39.077C261.463 38.7422 261.379 38.3306 261.379 37.8423C261.379 37.354 261.462 36.9355 261.627 36.5867C261.795 36.2379 262.024 35.9708 262.315 35.7855C262.606 35.5981 262.936 35.5045 263.304 35.5045C263.589 35.5045 263.82 35.5523 263.995 35.648C264.17 35.7416 264.307 35.8513 264.405 35.9768C264.504 36.1024 264.581 36.213 264.635 36.3087H264.701V35.5643H265.577V40.2579C265.577 40.6525 265.485 40.9764 265.301 41.2295C265.118 41.4826 264.87 41.67 264.557 41.7916C264.246 41.9131 263.895 41.9739 263.505 41.9739ZM263.496 39.3461C263.753 39.3461 263.97 39.2863 264.148 39.1667C264.327 39.0451 264.462 38.8717 264.554 38.6465C264.648 38.4193 264.695 38.1473 264.695 37.8304C264.695 37.5214 264.649 37.2494 264.557 37.0142C264.465 36.779 264.331 36.5957 264.153 36.4641C263.976 36.3306 263.757 36.2638 263.496 36.2638C263.227 36.2638 263.003 36.3336 262.823 36.4731C262.644 36.6106 262.508 36.798 262.417 37.0351C262.327 37.2723 262.282 37.5374 262.282 37.8304C262.282 38.1313 262.328 38.3954 262.42 38.6226C262.511 38.8498 262.647 39.0272 262.826 39.1547C263.007 39.2823 263.231 39.3461 263.496 39.3461ZM270.216 36.6853L269.406 36.8288C269.372 36.7252 269.318 36.6265 269.245 36.5329C269.173 36.4392 269.075 36.3625 268.952 36.3027C268.828 36.2429 268.674 36.213 268.488 36.213C268.235 36.213 268.024 36.2698 267.855 36.3834C267.685 36.495 267.6 36.6395 267.6 36.8169C267.6 36.9704 267.657 37.0939 267.771 37.1876C267.884 37.2813 268.068 37.358 268.321 37.4178L269.05 37.5852C269.473 37.6829 269.788 37.8333 269.995 38.0366C270.202 38.2399 270.306 38.504 270.306 38.8289C270.306 39.1039 270.226 39.3491 270.067 39.5643C269.909 39.7776 269.689 39.945 269.406 40.0666C269.125 40.1881 268.799 40.2489 268.429 40.2489C267.914 40.2489 267.495 40.1393 267.17 39.9201C266.845 39.6988 266.646 39.3849 266.572 38.9784L267.436 38.8468C267.49 39.072 267.6 39.2424 267.768 39.358C267.935 39.4716 268.154 39.5284 268.423 39.5284C268.716 39.5284 268.95 39.4676 269.125 39.3461C269.301 39.2225 269.388 39.072 269.388 38.8946C269.388 38.7511 269.334 38.6306 269.227 38.5329C269.121 38.4352 268.959 38.3615 268.74 38.3117L267.962 38.1413C267.534 38.0436 267.217 37.8882 267.012 37.6749C266.808 37.4616 266.707 37.1916 266.707 36.8647C266.707 36.5937 266.782 36.3565 266.934 36.1532C267.085 35.9499 267.295 35.7915 267.562 35.6779C267.829 35.5623 268.135 35.5045 268.479 35.5045C268.976 35.5045 269.366 35.6121 269.651 35.8273C269.936 36.0406 270.125 36.3266 270.216 36.6853Z" fill="black"/>
<g clip-path="url(#clip0_176_22943)">
<path d="M37.9707 11.7266C33.7461 11.7266 30.3174 15.1553 30.3174 19.3799C30.3174 23.6045 33.7461 27.0332 37.9707 27.0332C42.1954 27.0332 45.624 23.6045 45.624 19.3799C45.624 15.1553 42.1954 11.7266 37.9707 11.7266ZM37.9707 25.5026C34.5956 25.5026 31.848 22.755 31.848 19.3799C31.848 16.0048 34.5956 13.2572 37.9707 13.2572C41.3458 13.2572 44.0934 16.0048 44.0934 19.3799C44.0934 22.755 41.3458 25.5026 37.9707 25.5026ZM33.7614 23.5892L39.509 20.9182L42.18 15.1706L36.4324 17.8416L33.7614 23.5892ZM37.9707 18.538C38.4376 18.538 38.8126 18.913 38.8126 19.3799C38.8126 19.8467 38.4376 20.2218 37.9707 20.2218C37.5039 20.2218 37.1288 19.8467 37.1288 19.3799C37.1288 18.913 37.5039 18.538 37.9707 18.538Z" fill="black"/>
</g>
<g clip-path="url(#clip1_176_22943)">
<path d="M185.298 12.4922C183.966 12.4922 182.688 13.1121 181.854 14.0917C181.019 13.1121 179.741 12.4922 178.41 12.4922C176.052 12.4922 174.2 14.3443 174.2 16.7015C174.2 19.5945 176.802 21.9517 180.744 25.5335L181.854 26.5361L182.963 25.5258C186.905 21.9517 189.507 19.5945 189.507 16.7015C189.507 14.3443 187.655 12.4922 185.298 12.4922ZM181.93 24.3931L181.854 24.4697L181.777 24.3931C178.134 21.0945 175.731 18.9133 175.731 16.7015C175.731 15.1709 176.879 14.0229 178.41 14.0229C179.588 14.0229 180.736 14.7805 181.142 15.829H182.573C182.971 14.7805 184.119 14.0229 185.298 14.0229C186.828 14.0229 187.976 15.1709 187.976 16.7015C187.976 18.9133 185.573 21.0945 181.93 24.3931Z" fill="black"/>
</g>
<g clip-path="url(#clip2_176_22943)">
<path d="M117.565 15.5532H116.035V13.2572H113.739V11.7266H117.565V15.5532ZM117.565 27.0332V23.2066H116.035V25.5026H113.739V27.0332H117.565ZM102.259 27.0332H106.085V25.5026H103.789V23.2066H102.259V27.0332ZM102.259 11.7266V15.5532H103.789V13.2572H106.085V11.7266H102.259Z" fill="black"/>
</g>
<g clip-path="url(#clip3_176_22943)">
<path d="M253.795 14.7119C254.682 14.7119 255.402 15.4314 255.402 16.3191C255.402 17.2069 254.682 17.9263 253.795 17.9263C252.907 17.9263 252.187 17.2069 252.187 16.3191C252.187 15.4314 252.907 14.7119 253.795 14.7119ZM253.795 21.5999C256.068 21.5999 258.463 22.7173 258.463 23.2071V24.049H249.126V23.2071C249.126 22.7173 251.522 21.5999 253.795 21.5999ZM253.795 13.2578C252.103 13.2578 250.733 14.6278 250.733 16.3191C250.733 18.0105 252.103 19.3805 253.795 19.3805C255.486 19.3805 256.856 18.0105 256.856 16.3191C256.856 14.6278 255.486 13.2578 253.795 13.2578ZM253.795 20.1458C251.751 20.1458 247.672 21.1714 247.672 23.2071V25.5031H259.917V23.2071C259.917 21.1714 255.838 20.1458 253.795 20.1458Z" fill="black"/>
</g>
<path d="M50 117.33C50 103.805 60.9648 92.8398 74.4907 92.8398H312.509C326.035 92.8398 337 103.805 337 117.331V120.392C337 133.918 326.035 144.883 312.509 144.883H74.4907C60.9648 144.883 50 133.918 50 120.392V117.33Z" fill="#F5F7F9"/>
<rect x="104.339" y="103.555" width="30.6133" height="30.6133" rx="6.12267" fill="#DFFE4B"/>
<g clip-path="url(#clip4_176_22943)">
<path d="M202.047 114.398H200.261V111.719H197.582V109.934H201.281C201.704 109.934 202.047 110.276 202.047 110.699V114.398ZM201.281 127.791C201.704 127.791 202.047 127.449 202.047 127.026V123.327H200.261V126.006H197.582V127.791H201.281ZM184.189 127.026C184.189 127.449 184.532 127.791 184.954 127.791H188.653V126.006H185.975V123.327H184.189V127.026ZM184.954 109.934C184.532 109.934 184.189 110.276 184.189 110.699V114.398H185.975V111.719H188.653V109.934H184.954Z" fill="#1D1F23"/>
</g>
<g clip-path="url(#clip5_176_22943)">
<path d="M119.646 109.934C114.717 109.934 110.717 113.934 110.717 118.862C110.717 123.791 114.717 127.791 119.646 127.791C124.574 127.791 128.575 123.791 128.575 118.862C128.575 113.934 124.574 109.934 119.646 109.934ZM119.646 126.006C115.708 126.006 112.503 122.8 112.503 118.862C112.503 114.925 115.708 111.719 119.646 111.719C123.583 111.719 126.789 114.925 126.789 118.862C126.789 122.8 123.583 126.006 119.646 126.006ZM115.176 122.824C115.026 123.147 115.361 123.482 115.684 123.332L120.933 120.893C121.261 120.741 121.524 120.477 121.676 120.15L124.115 114.901C124.266 114.578 123.931 114.243 123.607 114.393L118.358 116.832C118.031 116.984 117.767 117.247 117.615 117.575L115.176 122.824ZM119.646 117.88C120.19 117.88 120.628 118.318 120.628 118.862C120.628 119.407 120.19 119.845 119.646 119.845C119.101 119.845 118.664 119.407 118.664 118.862C118.664 118.318 119.101 117.88 119.646 117.88Z" fill="#1D1F23"/>
</g>
<g clip-path="url(#clip6_176_22943)">
<path d="M270.608 110.828C269.054 110.828 267.563 111.551 266.59 112.694C265.616 111.551 264.125 110.828 262.572 110.828C259.821 110.828 257.661 112.989 257.661 115.739C257.661 119.114 260.696 121.864 265.295 126.043L266.075 126.747C266.367 127.011 266.812 127.01 267.103 126.745L267.884 126.034C272.483 121.864 275.518 119.114 275.518 115.739C275.518 112.989 273.358 110.828 270.608 110.828ZM266.679 124.713L266.59 124.802L266.5 124.713C262.25 120.864 259.446 118.319 259.446 115.739C259.446 113.953 260.786 112.614 262.572 112.614C263.947 112.614 265.286 113.498 265.759 114.721H267.429C267.893 113.498 269.232 112.614 270.608 112.614C272.393 112.614 273.733 113.953 273.733 115.739C273.733 118.319 270.929 120.864 266.679 124.713Z" fill="#1D1F23"/>
</g>
<defs>
<clipPath id="clip0_176_22943">
<rect width="18.368" height="18.368" fill="white" transform="translate(28.7866 10.1953)"/>
</clipPath>
<clipPath id="clip1_176_22943">
<rect width="18.368" height="18.368" fill="white" transform="translate(172.669 10.1953)"/>
</clipPath>
<clipPath id="clip2_176_22943">
<rect width="18.368" height="18.368" fill="white" transform="translate(100.728 10.1953)"/>
</clipPath>
<clipPath id="clip3_176_22943">
<rect width="18.368" height="18.368" fill="white" transform="translate(244.611 10.1953)"/>
</clipPath>
<clipPath id="clip4_176_22943">
<rect width="21.4293" height="21.4293" fill="white" transform="translate(182.403 108.148)"/>
</clipPath>
<clipPath id="clip5_176_22943">
<rect width="21.4293" height="21.4293" fill="white" transform="translate(108.931 108.148)"/>
</clipPath>
<clipPath id="clip6_176_22943">
<rect width="21.4293" height="21.4293" fill="white" transform="translate(255.875 108.148)"/>
</clipPath>
</defs>
</svg>
