<svg width="40" height="40" viewBox="0 0 40 40" fill="none" xmlns="http://www.w3.org/2000/svg">
<path d="M4.2805 12.4444C4.21799 12.3187 4.27123 12.1662 4.3984 12.1067L12.4154 8.35559C12.4485 8.34007 12.4847 8.33203 12.5213 8.33203H15.2348C15.3729 8.33203 15.4834 8.44445 15.4979 8.58176C15.6749 10.2614 17.6229 11.5846 19.9998 11.5846C22.3768 11.5846 24.3247 10.2614 24.5018 8.58176C24.5162 8.44445 24.6268 8.33203 24.7649 8.33203H27.4783C27.515 8.33203 27.5511 8.34007 27.5843 8.35559L35.6013 12.1067C35.7284 12.1662 35.7817 12.3187 35.7192 12.4444L32.2778 19.3649C32.2192 19.4828 32.0791 19.535 31.9576 19.4842L29.0753 18.2804C28.9106 18.2116 28.7289 18.3326 28.7289 18.5111V31.4154C28.7289 31.5534 28.617 31.6654 28.4789 31.6654H11.5208C11.3827 31.6654 11.2708 31.5534 11.2708 31.4154V18.5111C11.2708 18.3326 11.0891 18.2116 10.9244 18.2804L8.04208 19.4842C7.92056 19.535 7.78051 19.4828 7.72188 19.3649L4.2805 12.4444Z" stroke="#1D1F23" stroke-width="1.5"/>
</svg>
